<?xml version="1.0" encoding="utf-8"?>
<!-- Generator: Adobe Illustrator 25.3.1, SVG Export Plug-In . SVG Version: 6.00 Build 0)  -->
<svg version="1.1" id="Layer_1" xmlns:xodm="http://www.corel.com/coreldraw/odm/2003"
	 xmlns="http://www.w3.org/2000/svg" xmlns:xlink="http://www.w3.org/1999/xlink" x="0px" y="0px" viewBox="0 0 3000 3000"
	 style="enable-background:new 0 0 3000 3000;" xml:space="preserve">
<style type="text/css">
	.st0{display:none;fill-rule:evenodd;clip-rule:evenodd;fill:#191C25;}
	.st1{fill:#8976F5;}
	.st2{fill-rule:evenodd;clip-rule:evenodd;fill:#FFFFFF;}
	.st3{fill-rule:evenodd;clip-rule:evenodd;fill:#8976F5;}
	.st4{fill:#FFFFFF;}
</style>
<rect class="st0" width="3000" height="3000"/>
<g id="LOGO">
	<path id="circle_x5F_one" class="st1" d="M1651.4,173.3c366.3,0,698,148.5,938.1,388.6c240.1,240.1,388.6,571.8,388.6,938.1
		s-148.5,698-388.6,938.1c-240.1,240.1-571.8,388.6-938.1,388.6s-698-148.5-938.1-388.6S324.7,1866.3,324.7,1500
		s148.5-698,388.6-938.1S1285.1,173.3,1651.4,173.3L1651.4,173.3z M2571.9,579.5c-235.6-235.6-561-381.4-920.5-381.4
		S966.5,343.9,730.9,579.5s-381.4,561-381.4,920.5s145.8,684.9,381.4,920.5s561,381.4,920.5,381.4s684.9-145.8,920.5-381.4
		c235.6-235.6,381.4-561,381.4-920.5S2807.5,815.1,2571.9,579.5L2571.9,579.5z"/>
	<path id="circle_x5F_dashed" class="st2" d="M1580.3,271c10,0,18.3,8.1,18.3,18.3c0,10-8.1,18.3-18.3,18.3
		c-10,0-18.3-8.1-18.3-18.3C1562,279.1,1570.1,271,1580.3,271z M1509.3,277.2c10,0,18.3,8.1,18.3,18.3c0,10-8.1,18.3-18.3,18.3
		c-10,0-18.3-8.1-18.3-18.3C1491,285.3,1499.3,277.2,1509.3,277.2z M1438.9,287.7c10,0,18.3,8.1,18.3,18.3c0,10-8.1,18.3-18.3,18.3
		c-10,0-18.3-8.1-18.3-18.3C1420.6,295.8,1428.7,287.7,1438.9,287.7z M1369.2,302c10,0,18.3,8.1,18.3,18.3c0,10-8.1,18.3-18.3,18.3
		c-10,0-18.3-8.1-18.3-18.3C1350.9,310.3,1359,302,1369.2,302z M1300.3,320.5c10,0,18.3,8.1,18.3,18.3c0,10-8.1,18.3-18.3,18.3
		c-10,0-18.3-8.1-18.3-18.3C1282.1,328.7,1290.2,320.5,1300.3,320.5z M1232.7,342.9c10,0,18.3,8.1,18.3,18.3
		c0,10-8.1,18.3-18.3,18.3c-10,0-18.3-8.1-18.3-18.3C1214.6,351.1,1222.7,342.9,1232.7,342.9z M1166.7,369.7
		c10,0,18.3,8.1,18.3,18.3c0,10-8.1,18.3-18.3,18.3c-10,0-18.3-8.1-18.3-18.3S1156.6,369.7,1166.7,369.7z M1102.4,400.2
		c10,0,18.3,8.1,18.3,18.3c0,10-8.1,18.3-18.3,18.3c-10,0-18.3-8.1-18.3-18.3C1084.2,408.3,1092.3,400.2,1102.4,400.2z
		 M1039.8,434.3c10,0,18.3,8.1,18.3,18.3c0,10-8.1,18.3-18.3,18.3c-10,0-18.3-8.1-18.3-18.3C1021.6,442.4,1029.8,434.3,1039.8,434.3
		z M979.4,472c10,0,18.3,8.1,18.3,18.3c0,10-8.1,18.3-18.3,18.3c-10,0-18.3-8.1-18.3-18.3C961.1,480.1,969.2,472,979.4,472z
		 M921.3,513.1c10,0,18.3,8.1,18.3,18.3c0,10-8.1,18.3-18.3,18.3c-10,0-18.3-8.1-18.3-18.3S911.1,513.1,921.3,513.1z M865.8,557.7
		c10,0,18.3,8.1,18.3,18.3c0,10-8.1,18.3-18.3,18.3c-10,0-18.3-8.1-18.3-18.3C847.5,566,855.8,557.7,865.8,557.7z M813,605.6
		c10,0,18.3,8.1,18.3,18.3c0,10-8.1,18.3-18.3,18.3c-10,0-18.3-8.1-18.3-18.3C794.8,613.7,802.9,605.6,813,605.6z M762.9,656.3
		c10,0,18.3,8.1,18.3,18.3c0,10-8.1,18.3-18.3,18.3c-10,0-18.3-8.1-18.3-18.3S752.9,656.3,762.9,656.3z M715.8,709.6
		c10,0,18.3,8.1,18.3,18.3c0,10-8.1,18.3-18.3,18.3c-10,0-18.3-8.1-18.3-18.3C697.6,717.7,705.7,709.6,715.8,709.6z M672.2,766
		c10,0,18.3,8.1,18.3,18.3c0,10-8.1,18.3-18.3,18.3c-10,0-18.3-8.1-18.3-18.3C654,774.1,662.2,766,672.2,766z M631.9,824.6
		c10,0,18.3,8.1,18.3,18.3c0,10-8.1,18.3-18.3,18.3c-10,0-18.3-8.1-18.3-18.3C613.7,832.9,621.9,824.6,631.9,824.6z M595.1,885.6
		c10,0,18.3,8.1,18.3,18.3c0,10-8.1,18.3-18.3,18.3c-10,0-18.3-8.1-18.3-18.3S585,885.6,595.1,885.6z M561.7,948.5
		c10,0,18.3,8.1,18.3,18.3c0,10-8.1,18.3-18.3,18.3c-10,0-18.3-8.1-18.3-18.3C543.5,956.6,551.7,948.5,561.7,948.5z M532.2,1013.3
		c10,0,18.3,8.1,18.3,18.3c0,10-8.1,18.3-18.3,18.3c-10,0-18.3-8.1-18.3-18.3C514,1021.4,522.1,1013.3,532.2,1013.3z M506.7,1079.9
		c10,0,18.3,8.1,18.3,18.3c0,10-8.1,18.3-18.3,18.3c-10,0-18.3-8.1-18.3-18.3C488.6,1088.1,496.7,1079.9,506.7,1079.9z
		 M485.3,1147.8c10,0,18.3,8.1,18.3,18.3c0,10-8.1,18.3-18.3,18.3c-10,0-18.3-8.1-18.3-18.3C467,1155.9,475.2,1147.8,485.3,1147.8z
		 M467.8,1216.9c10,0,18.3,8.1,18.3,18.3c0,10-8.1,18.3-18.3,18.3c-10,0-18.3-8.1-18.3-18.3C449.5,1225,457.6,1216.9,467.8,1216.9z
		 M454.1,1286.7c10,0,18.3,8.1,18.3,18.3c0,10-8.1,18.3-18.3,18.3c-10,0-18.3-8.1-18.3-18.3C435.9,1294.8,444.1,1286.7,454.1,1286.7
		z M444.7,1357.3c10,0,18.3,8.1,18.3,18.3s-8.1,18.3-18.3,18.3c-10,0-18.3-8.1-18.3-18.3C426.5,1365.4,434.6,1357.3,444.7,1357.3z
		 M439.7,1428.4c10,0,18.3,8.1,18.3,18.3c0,10-8.1,18.3-18.3,18.3c-10,0-18.3-8.1-18.3-18.3C421.5,1436.5,429.7,1428.4,439.7,1428.4
		z M438.8,1499.6c10,0,18.3,8.1,18.3,18.3c0,10-8.1,18.3-18.3,18.3c-10,0-18.3-8.1-18.3-18.3
		C420.5,1507.7,428.8,1499.6,438.8,1499.6z M442,1570.7c10,0,18.3,8.1,18.3,18.3c0,10-8.1,18.3-18.3,18.3c-10,0-18.3-8.1-18.3-18.3
		C423.7,1578.8,431.8,1570.7,442,1570.7z M449.2,1641.6c10,0,18.3,8.1,18.3,18.3c0,10.1-8.1,18.3-18.3,18.3
		c-10,0-18.3-8.1-18.3-18.3C431,1649.7,439.1,1641.6,449.2,1641.6z M460.4,1711.8c10,0,18.3,8.1,18.3,18.3c0,10-8.1,18.3-18.3,18.3
		c-10,0-18.3-8.1-18.3-18.3C442.1,1720,450.4,1711.8,460.4,1711.8z M475.7,1781.4c10,0,18.3,8.1,18.3,18.3c0,10-8.1,18.3-18.3,18.3
		c-10,0-18.3-8.1-18.3-18.3C457.5,1789.6,465.7,1781.4,475.7,1781.4z M495.4,1849.9c10,0,18.3,8.1,18.3,18.3
		c0,10-8.1,18.3-18.3,18.3c-10,0-18.3-8.1-18.3-18.3C477.2,1858,485.3,1849.9,495.4,1849.9z M519.1,1917c10,0,18.3,8.1,18.3,18.3
		c0,10-8.1,18.3-18.3,18.3c-10,0-18.3-8.1-18.3-18.3C500.9,1925.1,509.1,1917,519.1,1917z M546.7,1982.7c10,0,18.3,8.1,18.3,18.3
		c0,10-8.1,18.3-18.3,18.3c-10,0-18.3-8.1-18.3-18.3C528.5,1990.8,536.6,1982.7,546.7,1982.7z M577.9,2046.7
		c10,0,18.3,8.1,18.3,18.3c0,10-8.1,18.3-18.3,18.3c-10,0-18.3-8.1-18.3-18.3C559.8,2054.8,567.9,2046.7,577.9,2046.7z
		 M612.8,2108.9c10,0,18.3,8.1,18.3,18.3c0,10-8.1,18.3-18.3,18.3c-10,0-18.3-8.1-18.3-18.3C594.5,2117,602.8,2108.9,612.8,2108.9z
		 M651.6,2168.6c10,0,18.3,8.1,18.3,18.3c0,10-8.1,18.3-18.3,18.3c-10,0-18.3-8.1-18.3-18.3C633.4,2176.7,641.5,2168.6,651.6,2168.6
		z M693.8,2225.9c10,0,18.3,8.1,18.3,18.3c0,10-8.1,18.3-18.3,18.3c-10,0-18.3-8.1-18.3-18.3S683.7,2225.9,693.8,2225.9z
		 M739.2,2280.8c10,0,18.3,8.1,18.3,18.3c0,10-8.1,18.3-18.3,18.3c-10,0-18.3-8.1-18.3-18.3C720.9,2289,729,2280.8,739.2,2280.8z
		 M787.5,2333.2c10,0,18.3,8.1,18.3,18.3c0,10-8.1,18.3-18.3,18.3c-10,0-18.3-8.1-18.3-18.3C769.3,2341.3,777.4,2333.2,787.5,2333.2
		z M838.8,2382.4c10,0,18.3,8.1,18.3,18.3c0,10-8.1,18.3-18.3,18.3c-10,0-18.3-8.1-18.3-18.3
		C820.7,2390.5,828.8,2382.4,838.8,2382.4z M893.3,2428.4c10,0,18.3,8.1,18.3,18.3c0,10-8.1,18.3-18.3,18.3
		c-10,0-18.3-8.1-18.3-18.3C875.1,2436.6,883.2,2428.4,893.3,2428.4z M950.1,2471.2c10,0,18.3,8.1,18.3,18.3
		c0,10-8.1,18.3-18.3,18.3c-10,0-18.3-8.1-18.3-18.3C931.9,2479.5,940.1,2471.2,950.1,2471.2z M1009.4,2510.8
		c10,0,18.3,8.1,18.3,18.3c0,10-8.1,18.3-18.3,18.3c-10,0-18.3-8.1-18.3-18.3C991.1,2519.1,999.2,2510.8,1009.4,2510.8z
		 M1070.7,2547c10,0,18.3,8.1,18.3,18.3c0,10-8.1,18.3-18.3,18.3c-10,0-18.3-8.1-18.3-18.3C1052.6,2555.1,1060.7,2547,1070.7,2547z
		 M1134.3,2579.2c10,0,18.3,8.1,18.3,18.3c0,10-8.1,18.3-18.3,18.3c-10,0-18.3-8.1-18.3-18.3
		C1116,2587.3,1124.1,2579.2,1134.3,2579.2z M1199.6,2607.6c10,0,18.3,8.1,18.3,18.3c0,10-8.1,18.3-18.3,18.3
		c-10,0-18.3-8.1-18.3-18.3S1189.5,2607.6,1199.6,2607.6z M1266.4,2632.1c10,0,18.3,8.1,18.3,18.3c0,10-8.1,18.3-18.3,18.3
		c-10.1,0-18.3-8.1-18.3-18.3C1248.2,2640.2,1256.3,2632.1,1266.4,2632.1z M1334.5,2652.8c10,0,18.3,8.1,18.3,18.3
		c0,10-8.1,18.3-18.3,18.3c-10,0-18.3-8.1-18.3-18.3C1316.4,2660.9,1324.5,2652.8,1334.5,2652.8z M1403.8,2669.5
		c10,0,18.3,8.1,18.3,18.3c0,10.1-8.1,18.3-18.3,18.3c-10,0-18.3-8.1-18.3-18.3C1385.5,2677.6,1393.8,2669.5,1403.8,2669.5z
		 M1473.9,2681.8c10,0,18.3,8.1,18.3,18.3c0,10-8.1,18.3-18.3,18.3c-10,0-18.3-8.1-18.3-18.3
		C1455.8,2689.9,1463.9,2681.8,1473.9,2681.8z M1544.8,2689.9c10,0,18.3,8.1,18.3,18.3c0,10-8.1,18.3-18.3,18.3
		c-10.1,0-18.3-8.1-18.3-18.3S1534.6,2689.9,1544.8,2689.9z M1615.8,2693.9c10,0,18.3,8.1,18.3,18.3c0,10-8.1,18.3-18.3,18.3
		c-10,0-18.3-8.1-18.3-18.3C1597.7,2702.1,1605.8,2693.9,1615.8,2693.9z M1687.1,2693.9c10,0,18.3,8.1,18.3,18.3
		c0,10-8.1,18.3-18.3,18.3c-10,0-18.3-8.1-18.3-18.3C1668.8,2702.1,1676.9,2693.9,1687.1,2693.9z M1758.1,2689.9
		c10,0,18.3,8.1,18.3,18.3c0,10-8.1,18.3-18.3,18.3c-10.1,0-18.3-8.1-18.3-18.3C1740,2698,1748.1,2689.9,1758.1,2689.9z
		 M1828.9,2681.8c10,0,18.3,8.1,18.3,18.3c0,10-8.1,18.3-18.3,18.3c-10,0-18.3-8.1-18.3-18.3
		C1810.7,2689.9,1818.8,2681.8,1828.9,2681.8z M1899,2669.5c10,0,18.3,8.1,18.3,18.3c0,10.1-8.1,18.3-18.3,18.3
		c-10,0-18.3-8.1-18.3-18.3C1880.8,2677.6,1888.9,2669.5,1899,2669.5z M1968.3,2652.8c10,0,18.3,8.1,18.3,18.3
		c0,10-8.1,18.3-18.3,18.3c-10,0-18.3-8.1-18.3-18.3C1950.1,2660.9,1958.2,2652.8,1968.3,2652.8z M2036.4,2632.1
		c10,0,18.3,8.1,18.3,18.3c0,10-8.1,18.3-18.3,18.3c-10.1,0-18.3-8.1-18.3-18.3C2018.2,2640.2,2026.4,2632.1,2036.4,2632.1z
		 M2103.2,2607.6c10,0,18.3,8.1,18.3,18.3c0,10-8.1,18.3-18.3,18.3c-10.1,0-18.3-8.1-18.3-18.3
		C2085.1,2615.7,2093.2,2607.6,2103.2,2607.6z M2168.6,2579.2c10,0,18.3,8.1,18.3,18.3c0,10-8.1,18.3-18.3,18.3
		c-10,0-18.3-8.1-18.3-18.3C2150.4,2587.3,2158.6,2579.2,2168.6,2579.2z M2232.2,2547c10,0,18.3,8.1,18.3,18.3
		c0,10-8.1,18.3-18.3,18.3c-10,0-18.3-8.1-18.3-18.3C2213.9,2555.1,2222,2547,2232.2,2547z M2293.5,2510.8c10,0,18.3,8.1,18.3,18.3
		c0,10-8.1,18.3-18.3,18.3c-10.1,0-18.3-8.1-18.3-18.3C2275.3,2519.1,2283.5,2510.8,2293.5,2510.8L2293.5,2510.8z M2352.7,2471.2
		c10,0,18.3,8.1,18.3,18.3c0,10-8.1,18.3-18.3,18.3c-10,0-18.3-8.1-18.3-18.3C2334.5,2479.5,2342.7,2471.2,2352.7,2471.2z
		 M2409.5,2428.4c10,0,18.3,8.1,18.3,18.3c0,10-8.1,18.3-18.3,18.3c-10,0-18.3-8.1-18.3-18.3
		C2391.4,2436.6,2399.5,2428.4,2409.5,2428.4z M2464,2382.4c10,0,18.3,8.1,18.3,18.3c0,10-8.1,18.3-18.3,18.3
		c-10,0-18.3-8.1-18.3-18.3C2445.7,2390.5,2453.9,2382.4,2464,2382.4z M2515.3,2333.2c10,0,18.3,8.1,18.3,18.3
		c0,10-8.1,18.3-18.3,18.3c-10,0-18.3-8.1-18.3-18.3C2497.2,2341.3,2505.3,2333.2,2515.3,2333.2z M2563.7,2280.8
		c10,0,18.3,8.1,18.3,18.3c0,10-8.1,18.3-18.3,18.3c-10,0-18.3-8.1-18.3-18.3C2545.6,2289,2553.7,2280.8,2563.7,2280.8z
		 M2609,2225.9c10,0,18.3,8.1,18.3,18.3c0,10-8.1,18.3-18.3,18.3c-10,0-18.3-8.1-18.3-18.3C2590.9,2234,2599,2225.9,2609,2225.9z
		 M2651.2,2168.6c10,0,18.3,8.1,18.3,18.3c0,10-8.1,18.3-18.3,18.3c-10,0-18.3-8.1-18.3-18.3
		C2633.1,2176.7,2641.2,2168.6,2651.2,2168.6L2651.2,2168.6z M2690,2108.9c10,0,18.3,8.1,18.3,18.3c0,10-8.1,18.3-18.3,18.3
		c-10,0-18.3-8.1-18.3-18.3C2671.8,2117,2680,2108.9,2690,2108.9z M2725,2046.7c10,0,18.3,8.1,18.3,18.3c0,10.1-8.1,18.3-18.3,18.3
		c-10,0-18.3-8.1-18.3-18.3C2706.7,2054.8,2714.8,2046.7,2725,2046.7z M2756.1,1982.7c10,0,18.3,8.1,18.3,18.3
		c0,10-8.1,18.3-18.3,18.3c-10,0-18.3-8.1-18.3-18.3C2737.9,1990.8,2746.1,1982.7,2756.1,1982.7z M2783.8,1917
		c10,0,18.3,8.1,18.3,18.3c0,10-8.1,18.3-18.3,18.3c-10,0-18.3-8.1-18.3-18.3C2765.5,1925.1,2773.6,1917,2783.8,1917z
		 M2807.4,1849.9c10,0,18.3,8.1,18.3,18.3c0,10-8.1,18.3-18.3,18.3c-10,0-18.3-8.1-18.3-18.3
		C2789.3,1858,2797.4,1849.9,2807.4,1849.9z M2827.1,1781.4c10,0,18.3,8.1,18.3,18.3c0,10-8.1,18.3-18.3,18.3
		c-10,0-18.3-8.1-18.3-18.3C2808.9,1789.6,2817.1,1781.4,2827.1,1781.4z M2842.5,1711.8c10,0,18.3,8.1,18.3,18.3
		c0,10-8.1,18.3-18.3,18.3c-10.1,0-18.3-8.1-18.3-18.3C2824.2,1720,2832.3,1711.8,2842.5,1711.8z M2853.6,1641.6
		c10,0,18.3,8.1,18.3,18.3c0,10.1-8.1,18.3-18.3,18.3c-10,0-18.3-8.1-18.3-18.3C2835.5,1649.7,2843.6,1641.6,2853.6,1641.6z
		 M2860.9,1570.7c10,0,18.3,8.1,18.3,18.3c0,10-8.1,18.3-18.3,18.3s-18.3-8.1-18.3-18.3C2842.8,1578.8,2850.9,1570.7,2860.9,1570.7z
		 M2864.1,1499.6c10,0,18.3,8.1,18.3,18.3c0,10-8.1,18.3-18.3,18.3c-10,0-18.3-8.1-18.3-18.3
		C2845.8,1507.7,2854.1,1499.6,2864.1,1499.6z M2863.2,1428.4c10,0,18.3,8.1,18.3,18.3c0,10-8.1,18.3-18.3,18.3
		c-10,0-18.3-8.1-18.3-18.3C2844.9,1436.5,2853,1428.4,2863.2,1428.4z M2858.1,1357.3c10,0,18.3,8.1,18.3,18.3
		c0,10-8.1,18.3-18.3,18.3c-10,0-18.3-8.1-18.3-18.3S2848.1,1357.3,2858.1,1357.3z M2848.7,1286.7c10,0,18.3,8.1,18.3,18.3
		c0,10-8.1,18.3-18.3,18.3c-10,0-18.3-8.1-18.3-18.3C2830.4,1294.8,2838.6,1286.7,2848.7,1286.7z M2835.1,1216.9
		c10,0,18.3,8.1,18.3,18.3c0,10-8.1,18.3-18.3,18.3c-10,0-18.3-8.1-18.3-18.3C2817,1225,2825.1,1216.9,2835.1,1216.9z
		 M2817.5,1147.8c10,0,18.3,8.1,18.3,18.3c0,10-8.1,18.3-18.3,18.3c-10,0-18.3-8.1-18.3-18.3
		C2799.3,1155.9,2807.5,1147.8,2817.5,1147.8z M2796.1,1079.9c10,0,18.3,8.1,18.3,18.3c0,10-8.1,18.3-18.3,18.3
		c-10,0-18.3-8.1-18.3-18.3C2777.8,1088.1,2786,1079.9,2796.1,1079.9z M2770.6,1013.3c10,0,18.3,8.1,18.3,18.3
		c0,10.1-8.1,18.3-18.3,18.3c-10.1,0-18.3-8.1-18.3-18.3C2752.5,1021.6,2760.6,1013.3,2770.6,1013.3z M2741.2,948.5
		c10,0,18.3,8.1,18.3,18.3c0,10-8.1,18.3-18.3,18.3c-10,0-18.3-8.1-18.3-18.3S2731,948.5,2741.2,948.5z M2707.7,885.6
		c10,0,18.3,8.1,18.3,18.3c0,10-8.1,18.3-18.3,18.3c-10,0-18.3-8.1-18.3-18.3C2689.6,893.8,2697.7,885.6,2707.7,885.6z
		 M2670.9,824.6c10,0,18.3,8.1,18.3,18.3c0,10-8.1,18.3-18.3,18.3c-10.1,0-18.3-8.1-18.3-18.3
		C2652.7,832.9,2660.8,824.6,2670.9,824.6z M2630.6,766c10,0,18.3,8.1,18.3,18.3c0,10-8.1,18.3-18.3,18.3c-10,0-18.3-8.1-18.3-18.3
		S2620.5,766,2630.6,766z M2587,709.6c10,0,18.3,8.1,18.3,18.3c0,10-8.1,18.3-18.3,18.3c-10,0-18.3-8.1-18.3-18.3
		C2568.9,717.7,2577,709.6,2587,709.6z M2539.9,656.3c10,0,18.3,8.1,18.3,18.3c0,10-8.1,18.3-18.3,18.3c-10,0-18.3-8.1-18.3-18.3
		C2521.7,664.4,2529.9,656.3,2539.9,656.3z M2489.9,605.6c10,0,18.3,8.1,18.3,18.3s-8.1,18.3-18.3,18.3c-10,0-18.3-8.1-18.3-18.3
		C2471.7,613.7,2479.8,605.6,2489.9,605.6z M2437,557.7c10,0,18.3,8.1,18.3,18.3c0,10-8.1,18.3-18.3,18.3c-10,0-18.3-8.1-18.3-18.3
		C2418.8,566,2426.9,557.7,2437,557.7z M2381.6,513.1c10,0,18.3,8.1,18.3,18.3c0,10-8.1,18.3-18.3,18.3c-10,0-18.3-8.1-18.3-18.3
		C2363.4,521.2,2371.6,513.1,2381.6,513.1z M2323.5,472c10,0,18.3,8.1,18.3,18.3c0,10-8.1,18.3-18.3,18.3c-10,0-18.3-8.1-18.3-18.3
		C2305.3,480.1,2313.5,472,2323.5,472z M2263,434.3c10,0,18.3,8.1,18.3,18.3c0,10-8.1,18.3-18.3,18.3c-10,0-18.3-8.1-18.3-18.3
		C2244.8,442.4,2252.9,434.3,2263,434.3z M2200.4,400.2c10,0,18.3,8.1,18.3,18.3c0,10-8.1,18.3-18.3,18.3s-18.3-8.1-18.3-18.3
		C2182.3,408.3,2190.4,400.2,2200.4,400.2z M2136.1,369.7c10,0,18.3,8.1,18.3,18.3c0,10-8.1,18.3-18.3,18.3
		c-10,0-18.3-8.1-18.3-18.3C2118,377.8,2126.1,369.7,2136.1,369.7z M2070.2,342.9c10,0,18.3,8.1,18.3,18.3c0,10-8.1,18.3-18.3,18.3
		s-18.3-8.1-18.3-18.3C2051.9,351.1,2060,342.9,2070.2,342.9z M2002.5,320.5c10,0,18.3,8.1,18.3,18.3c0,10-8.1,18.3-18.3,18.3
		c-10,0-18.3-8.1-18.3-18.3C1984.2,328.7,1992.5,320.5,2002.5,320.5z M1933.7,302c10,0,18.3,8.1,18.3,18.3c0,10-8.1,18.3-18.3,18.3
		c-10,0-18.3-8.1-18.3-18.3C1915.6,310.3,1923.7,302,1933.7,302z M1864,287.7c10,0,18.3,8.1,18.3,18.3c0,10-8.1,18.3-18.3,18.3
		c-10.1,0-18.3-8.1-18.3-18.3C1845.7,295.8,1854,287.7,1864,287.7z M1793.6,277.2c10,0,18.3,8.1,18.3,18.3c0,10-8.1,18.3-18.3,18.3
		c-10,0-18.3-8.1-18.3-18.3C1775.3,285.3,1783.4,277.2,1793.6,277.2z M1651.4,268.7c10,0,18.3,8.1,18.3,18.3
		c0,10-8.1,18.3-18.3,18.3c-10.1,0-18.3-8.1-18.3-18.3S1641.4,268.7,1651.4,268.7z M1722.6,271c10,0,18.3,8.1,18.3,18.3
		c0,10-8.1,18.3-18.3,18.3c-10,0-18.3-8.1-18.3-18.3C1704.5,279.1,1712.6,271,1722.6,271z"/>
	<path id="circle_x5F_two" class="st1" d="M1651.4,371.7c311.5,0,593.6,126.3,797.8,330.5c204.2,204.2,330.5,486.3,330.5,797.8
		s-126.3,593.6-330.5,797.8c-204.2,204.2-486.3,330.5-797.8,330.5s-593.6-126.3-797.8-330.5c-204.2-204.2-330.5-486.3-330.5-797.8
		s126.3-593.6,330.5-797.8C1057.8,497.9,1339.9,371.7,1651.4,371.7L1651.4,371.7z M2405.5,745.8c-193-193-459.6-312.4-754-312.4
		s-561.2,119.4-754,312.4C704.4,938.8,585,1205.4,585,1500c0,294.4,119.4,561.2,312.4,754c193,193,459.6,312.4,754,312.4
		s561.2-119.4,754-312.4c193-193,312.4-459.6,312.4-754C2717.9,1205.4,2598.5,938.8,2405.5,745.8L2405.5,745.8z"/>
	<g id="underline">
		<path id="line_x5F_shadow" class="st3" d="M2296.2,1925.7c2.5,97.7-317.9,114.9-397,118.7c-178.1,8.5-647.8,52.3-861.6,126.6
			c-227.3,79.1-315.7,351.1-52,432.8c-87.7-181.6,116.9-303.6,272-352.1c207.5-65.1,516.8-103.3,654.5-124.8
			c76.2-11.9,482.8-59.8,391.2-205.6C2285.5,1892.8,2295.9,1912.1,2296.2,1925.7L2296.2,1925.7z"/>
		<path id="line" class="st2" d="M2281.4,1903.5c2.5,97.7-317.9,114.9-397,118.7c-178.1,8.5-647.8,52.3-861.6,126.6
			c-227.3,79.1-315.7,351.1-52,432.8c-87.7-181.6,116.9-303.6,272-352.1c207.5-65.1,516.8-103.3,654.5-124.8
			c76.2-11.9,482.8-59.8,391.2-205.6C2270.7,1870.6,2281.1,1889.9,2281.4,1903.5z"/>
	</g>
	<g id="Torres">
		<g id="orres">
			<g id="orres_x5F_shadow">
				<path class="st1" d="M1015.3,1764.9c4.3,2.3,7.2,8.1,8.7,17.2c1.4,9.1,1.2,20-0.7,32.5s-5.7,26.1-11,40.9
					c-5.5,14.8-12.5,28.4-21,41.2s-19.3,23.8-31.7,32.9c-12.6,9.1-26.7,14.8-42.2,16.7c-4.6,0.6-9,1-13,1.2
					c-4.1,0.3-7.8,0.3-11.4,0.1c-13.3,28.5-29.7,52.9-49.1,72.7c-19.4,19.9-42,31.6-68,34.9c-20.1,2.6-37.8,1.2-53.2-4.2
					c-15.4-5.4-28.4-13.5-39.4-24.3s-19.7-24.1-26.1-39.7c-6.4-15.5-10.7-32.5-13-51c-3.8-29.3-2.5-60.3,3.6-92.9
					c6.1-32.6,16.4-63,31-91.1c14.5-28.1,33.2-52,55.8-71.9s48.5-31.6,78-35.2c16.1-2,30.4-0.3,43.2,5.1
					c12.6,5.4,23.6,13.3,32.7,23.9c9.3,10.6,16.5,23.5,22,38.8c5.5,15.4,9.3,32,11.6,49.8c2.3,18.4,2.9,37.8,1.6,58.1
					c-1.3,20.3-3.8,40.3-7.7,60.1c10,0.4,18.7-2.5,26.1-9c7.4-6.5,13.8-14.5,19.3-23.9c5.5-9.4,10.4-19.6,14.6-30.3
					c4.2-10.7,8.3-20.3,12.2-28.7c3.9-8.4,8-15.1,12.3-20C1004.7,1764,1009.7,1762.6,1015.3,1764.9z M839.1,1695.9
					c-15.5,2-29.7,10.3-42.5,25.1c-12.8,14.8-23.2,32.3-31.4,52.6c-8.3,20.3-14.2,42-17.7,64.9c-3.5,22.9-4.2,43.3-1.9,61.1
					c2.2,16.7,6.8,30,14.2,39.8c7.4,9.9,17.7,13.9,30.9,12.3c8.7-1.2,16.8-3.9,24.3-8.4c7.7-4.5,14.8-10.3,21.4-17.7
					c-10.9-11.4-17.4-26.7-19.9-45.6c-1.7-13.8-1.3-28.1,1.2-43c2.5-14.9,6.4-29.4,11.6-43.5c5.2-14.1,11.3-26.8,18.4-38.3
					c7-11.4,14.2-20.4,21.6-27.2c-3.6-10-7.8-18.1-12.8-24.2C852,1697.6,846.1,1695,839.1,1695.9z"/>
				<path class="st1" d="M1034.6,1584.5c10.9-1.4,20.7-0.1,29.4,3.8c8.7,3.9,13,10.7,13.2,20.7c0.3,11.6-0.6,25.5-2.6,41.6
					c10.7-7.2,22.2-15.4,34.2-24.5c12-9.1,23.5-17,34.2-23.6c0.6,0,1-0.3,1.3-0.6c0.3-0.3,0.7-0.6,1.3-0.6c4.6-0.6,12,0.9,22.5,4.2
					c10.3,3.3,18.4,7.2,24.3,11.9c7.8,6.1,12.6,16.5,14.5,31.4c1.9,14.3,1.4,31.3-1,50.6c-2.5,19.3-5.5,39.1-8.7,59.4
					c-3.3,20.3-6.2,39.8-8.8,58.5c-2.6,18.7-3,34.8-1.4,48c1.3,10.3,4.5,18.3,9.6,23.8s12.8,7.5,23.2,6.2
					c6.4-0.9,12.5-6.1,18.5-15.9c6.1-9.9,12-21.6,18-35.1c5.9-13.6,11.4-28,16.8-43.3c5.4-15.2,10.9-29.1,16.7-41.6
					c5.8-12.5,11.6-22,17.4-29c5.8-6.8,12.2-8.7,19-5.5c5.7,2.8,8.4,11.3,8.5,25.6c0,14.3-2.2,31.4-6.7,51.3
					c-4.5,19.9-11.2,41.2-20,63.9c-8.8,22.7-19.1,43.9-31,63.5c-11.9,19.6-25.2,36.4-40.1,50.1c-14.9,13.9-30.4,21.7-46.5,23.9
					c-34.5,4.3-59.6-1.6-74.9-17.7c-15.5-16.1-24.9-37.4-28.3-63.9c-3-23.6-2.6-49.3,1.2-77.2c3.8-28,8.4-54.3,14.1-79.3
					c5.7-24.9,10.6-46.8,14.9-65.5c4.3-18.7,5.9-30.6,4.6-35.6c0-0.6-3,0.4-8.8,2.9s-12,5.7-18.5,9.4c-6.5,3.8-12.6,7.2-18.4,10.6
					c-5.7,3.3-8.8,5.4-9.3,5.9c-9.3,28.1-17.5,54-24.8,78.1c-7.2,24.1-13.6,44.5-19.4,61.6s-11,30.1-15.6,39.3
					c-4.6,9.1-9.9,12.5-15.4,10.3c-5.5-2.2-9.7-5.8-12.8-10.7c-2.9-4.9-4.9-10.7-5.8-17.7c-1.3-9.7-0.7-21,1.4-33.5
					c2.2-12.6,5.4-25.6,9.6-39.3c4.1-13.6,8.5-27,13.3-39.8c4.8-12.9,9.1-24.5,13-34.9c-16.5-1.4-26.1-11.9-28.5-31.4
					c-1.6-12-0.6-29.7,2.9-52.9c1.6-10.1,7.4-18.4,17.4-24.9C1012.3,1590,1023,1585.9,1034.6,1584.5z"/>
				<path class="st1" d="M1337.3,1546.2c10.9-1.4,20.7-0.1,29.4,3.8c8.7,3.9,13,10.7,13.2,20.7c0.3,11.6-0.6,25.5-2.6,41.6
					c10.7-7.2,22.2-15.4,34.2-24.5c12-9.1,23.5-17,34.2-23.6c0.6,0,1-0.3,1.3-0.6c0.3-0.3,0.7-0.6,1.3-0.6c4.6-0.6,12,0.9,22.5,4.2
					c10.3,3.3,18.4,7.2,24.3,11.9c7.8,6.1,12.6,16.5,14.5,31.4c1.9,14.3,1.4,31.3-1,50.6c-2.5,19.3-5.5,39.1-8.7,59.4
					c-3.3,20.3-6.2,39.8-8.8,58.5c-2.6,18.7-3,34.8-1.4,48c1.3,10.3,4.5,18.3,9.6,23.8c5.1,5.5,12.8,7.5,23.2,6.2
					c6.4-0.9,12.5-6.1,18.5-15.9c6.1-9.9,12-21.6,18-35.1c5.9-13.6,11.4-28,16.8-43.3c5.4-15.2,10.9-29.1,16.7-41.6s11.6-22,17.4-29
					c5.8-6.8,12.2-8.7,19-5.5c5.7,2.8,8.4,11.3,8.5,25.6c0,14.3-2.2,31.4-6.7,51.3c-4.5,19.9-11.2,41.2-20,63.9
					c-8.8,22.7-19.1,43.9-31,63.5c-11.9,19.6-25.2,36.4-40.1,50.1c-14.9,13.9-30.4,21.7-46.5,23.9c-34.5,4.3-59.6-1.6-74.9-17.7
					c-15.5-16.1-24.9-37.4-28.3-63.9c-3-23.6-2.6-49.3,1.2-77.2c3.8-28,8.4-54.3,14.1-79.3c5.7-24.9,10.6-46.8,14.9-65.5
					c4.3-18.7,5.9-30.6,4.6-35.6c0-0.6-3,0.4-8.8,2.9c-5.8,2.5-12,5.7-18.5,9.4c-6.5,3.8-12.6,7.2-18.4,10.6
					c-5.7,3.3-8.8,5.4-9.3,5.9c-9.3,28.1-17.5,54-24.8,78.1c-7.2,24.1-13.6,44.5-19.4,61.6c-5.8,17.1-11,30.1-15.6,39.3
					c-4.6,9.1-9.9,12.5-15.4,10.3c-5.5-2.2-9.7-5.8-12.8-10.7c-2.9-4.9-4.9-10.7-5.8-17.7c-1.3-9.7-0.7-21,1.4-33.5
					c2.2-12.6,5.4-25.6,9.6-39.3c4.1-13.6,8.5-27,13.3-39.8c4.8-12.9,9.1-24.5,13-34.9c-16.5-1.4-26.1-11.9-28.5-31.4
					c-1.6-12-0.6-29.7,2.9-52.9c1.6-10.1,7.4-18.4,17.4-24.9C1315,1551.7,1325.8,1547.7,1337.3,1546.2z"/>
				<path class="st1" d="M1934.1,1651.4c6.7,2,10.3,10.1,10.9,24.1s-1.7,30.7-7.2,50.4c-5.4,19.7-13.9,41-25.6,64.2
					c-11.7,23-26.2,44.6-43.5,64.6c-17.4,20-37.5,37.5-60.4,52.3c-22.9,14.9-48.8,24.2-77.5,27.8c-23,2.9-43.3,1.4-61-4.5
					c-17.7-5.9-32.7-15.2-45.1-27.5c-12.5-12.5-22.2-27.5-29.4-45.4s-12-36.7-14.6-56.8c-3.6-28.7-2.6-59,3-90.7
					c5.7-31.7,15.6-61,30.1-88c14.3-27,33-49.8,55.8-68.8c22.7-19,49.3-30.3,79.8-34.2c2.9-0.3,5.4-0.6,7.4-0.4c2,0,4.2-0.1,6.5-0.4
					c21.3-2.8,38,4.2,50,20.9s19.6,36.9,22.6,61.1c2.2,17.2,2,35.2-0.6,53.9c-2.6,18.7-7.4,35.9-14.5,51.7
					c-7.1,15.8-16.7,29.3-28.7,40.4c-12,11.2-26.7,17.8-43.9,20c-13.8,1.7-25.6,0.3-35.6-4.2c-10-4.6-18.5-10.4-25.9-17.8
					c1,12.2,3,23.5,6.5,33.8c3.3,10.4,8,19.4,13.9,27.1c5.9,7.7,13.2,13.3,21.9,17c8.7,3.6,18.7,4.6,30.1,3.2
					c22.5-2.9,41.3-9.4,56.7-19.9c15.4-10.4,28.3-22.5,38.8-36.1s19.3-27.8,26.1-42.7c7-14.9,13-28.3,18.5-40s10.9-21.2,16.2-28
					C1920.8,1651.7,1926.9,1649.4,1934.1,1651.4z M1767.3,1558.5c-10.3,1.3-20.1,6.2-29.3,14.6c-9.1,8.4-17.1,19.1-24.1,32
					c-6.8,12.9-12.6,27.2-17.2,43.3c-4.6,16.1-7.7,32.5-9.1,49c15.2,4.5,29.3,3.3,42.5-3.6c13.2-7,24.5-16.7,34.1-29.3
					c9.6-12.6,16.5-26.4,21-41.2c4.5-14.9,5.8-27.8,3.9-38.5c-1.7-8.5-4.1-14.9-7.2-19.3c-3.2-4.2-6.5-6.8-10.1-7.5L1767.3,1558.5z"
					/>
				<path class="st1" d="M2017.4,1477.8c4.5-1.2,9.3-2.2,14.1-3c4.8-0.9,9.6-1.6,14.2-2.2c27-3.5,50.7-1.3,70.9,6.4
					c20.3,7.7,31.9,23,34.8,45.9c1.3,9.9,0.6,21.2-1.9,33.9c-2.5,12.9-7.7,27.4-15.5,43.6c-4.5,10.6-10.4,19.3-17.7,26.4
					c-7.2,7.1-16.1,11.3-26.5,12.6c-9.9,1.3-19.9-0.4-30.4-4.9c-3.6-0.7-6.7-2.6-9.1-5.8c-2.5-3.2-3.3-6.7-2.6-10.1
					c0.3-1.7,1.9-3.2,4.8-4.1c2.8-0.9,4.6-2,5.7-3.3c10.9-10.7,18.1-21,21.6-30.7s4.6-18.4,3.8-25.9c-1-7.5-3-13.2-6.1-17.2
					c-3.2-4.1-6.2-6.4-9.3-7.1c-4.8-0.6-8.5-0.7-11.4-0.3c-5.1,1.3-11,3.9-17.8,8c-6.8,4.1-13.2,9.4-19,15.9
					c-5.9,6.5-10.9,14.6-14.9,24.2c-4.1,9.6-6.2,20.4-6.4,32.7c-0.4,10.6,2.6,20.3,9,29.1c6.4,8.8,14.3,17.5,23.9,25.9
					s19.7,17.2,30.4,26.4c10.9,9.1,20.4,19.9,29,32.3c15.5,21.4,24.6,42.5,27.2,63.2c3.5,27.5-3.3,51.3-20.4,71
					c-17.1,19.7-40.3,32-69.4,36.8c-19.4,3-35.8,3.8-48.8,2.2c-13-1.6-25.5-9.4-37.2-23.8c-7-9-11.3-19.9-12.9-32.6
					c-1.3-9.7-0.9-19.3,1.2-28.7c2-9.3,4.8-17.4,8.3-24.3c3.5-6.8,7.2-11.9,11.3-15.1c4.1-3.2,7.7-3.2,11,0
					c3.5,4.2,5.5,8.1,6.2,11.4c0.7,3.5,1,6.7,0.7,9.6c-0.1,2.9-0.4,6.4-0.4,10.1c-0.1,3.8,1,8.3,3.5,13.2
					c2.6,6.7,5.9,11.4,10.1,14.1c4.2,2.8,8.5,4.1,13.2,4.1c4.6,0,9.3-1,13.6-3c4.3-2,8.1-4.6,11.3-8c5.1-5.9,7.1-12.3,5.9-19.1
					c-1.2-6.8-4.3-13.6-9.6-20.3c-5.2-6.7-11.6-13.3-19.1-20c-7.5-6.7-15.4-12.6-23.3-18.1c-8-5.4-15.2-10-21.4-13.9
					c-6.4-3.9-10.6-6.8-12.5-9c-15.1-13.3-26.8-27.4-35.2-42.5c-8.3-15.1-13.5-30.3-15.4-45.8c-2.2-17.2-0.9-34.2,4.1-50.9
					s13-32.3,24.3-46.9s25.5-27.2,42.6-37.8C1976.6,1491.6,1995.8,1483.5,2017.4,1477.8z"/>
			</g>
			<g id="orres_1_">
				<path class="st4" d="M995.9,1764.9c4.3,2.3,7.2,8.1,8.7,17.2c1.4,9.1,1.2,20-0.7,32.5s-5.7,26.1-11,40.9
					c-5.5,14.8-12.5,28.4-21,41.2c-8.5,12.8-19.3,23.8-31.7,32.9c-12.6,9.1-26.7,14.8-42.2,16.7c-4.6,0.6-9,1-13,1.2
					c-4.1,0.3-7.8,0.3-11.4,0.1c-13.3,28.5-29.7,52.9-49.1,72.7c-19.4,19.9-42,31.6-68,34.9c-20.1,2.6-37.8,1.2-53.2-4.2
					c-15.4-5.4-28.4-13.5-39.4-24.3c-11-10.9-19.7-24.1-26.1-39.7c-6.4-15.5-10.7-32.5-13-51c-3.8-29.3-2.5-60.3,3.6-92.9
					c6.1-32.6,16.4-63,31-91.1c14.5-28.1,33.2-52,55.8-71.9s48.5-31.6,78-35.2c16.1-2,30.4-0.3,43.2,5.1
					c12.6,5.4,23.6,13.3,32.7,23.9c9.3,10.6,16.5,23.5,22,38.8c5.5,15.4,9.3,32,11.6,49.8c2.3,18.4,2.9,37.8,1.6,58.1
					c-1.3,20.3-3.8,40.3-7.7,60.1c10,0.4,18.7-2.5,26.1-9c7.4-6.5,13.8-14.5,19.3-23.9c5.5-9.4,10.4-19.6,14.6-30.3
					c4.2-10.7,8.3-20.3,12.2-28.7c3.9-8.4,8-15.1,12.3-20C985.5,1764,990.4,1762.6,995.9,1764.9z M819.9,1695.9
					c-15.5,2-29.7,10.3-42.5,25.1c-12.8,14.8-23.2,32.3-31.4,52.6s-14.2,42-17.7,64.9c-3.5,22.9-4.2,43.3-1.9,61.1
					c2.2,16.7,6.8,30,14.2,39.8c7.4,9.9,17.7,13.9,30.9,12.3c8.7-1.2,16.8-3.9,24.3-8.4c7.7-4.5,14.8-10.3,21.4-17.7
					c-10.9-11.4-17.4-26.7-19.9-45.6c-1.7-13.8-1.3-28.1,1.2-43c2.5-14.9,6.4-29.4,11.6-43.5c5.2-14.1,11.3-26.8,18.4-38.3
					c7-11.4,14.2-20.4,21.6-27.2c-3.6-10-7.8-18.1-12.8-24.2C832.6,1697.6,826.8,1695,819.9,1695.9z"/>
				<path class="st4" d="M1015.2,1584.5c10.9-1.4,20.7-0.1,29.4,3.8c8.7,3.9,13,10.7,13.2,20.7c0.3,11.6-0.6,25.5-2.6,41.6
					c10.7-7.2,22.2-15.4,34.2-24.5c12-9.1,23.5-17,34.2-23.6c0.6,0,1-0.3,1.3-0.6c0.3-0.3,0.7-0.6,1.3-0.6c4.6-0.6,12,0.9,22.5,4.2
					c10.3,3.3,18.4,7.2,24.3,11.9c7.8,6.1,12.6,16.5,14.5,31.4c1.9,14.3,1.4,31.3-1,50.6c-2.5,19.3-5.5,39.1-8.7,59.4
					c-3.3,20.3-6.2,39.8-8.8,58.5c-2.6,18.7-3,34.8-1.4,48c1.3,10.3,4.5,18.3,9.6,23.8c5.1,5.5,12.8,7.5,23.2,6.2
					c6.4-0.9,12.5-6.1,18.5-15.9c6.1-9.9,12-21.6,18-35.1c5.9-13.6,11.4-28,16.8-43.3c5.4-15.2,10.9-29.1,16.7-41.6s11.6-22,17.4-29
					c5.8-6.8,12.2-8.7,19-5.5c5.7,2.8,8.4,11.3,8.5,25.6c0,14.3-2.2,31.4-6.7,51.3c-4.5,19.9-11.2,41.2-20,63.9
					c-8.8,22.7-19.1,43.9-31,63.5c-11.9,19.6-25.2,36.4-40.1,50.1c-14.9,13.9-30.4,21.7-46.5,23.9c-34.5,4.3-59.6-1.6-74.9-17.7
					c-15.5-16.1-24.9-37.4-28.3-63.9c-3-23.6-2.6-49.3,1.2-77.2c3.8-28,8.4-54.3,14.1-79.3c5.7-24.9,10.6-46.8,14.9-65.3
					c4.3-18.7,5.9-30.6,4.6-35.6c0-0.6-3,0.4-8.8,2.9c-5.8,2.5-12,5.7-18.5,9.4c-6.5,3.8-12.6,7.2-18.4,10.6
					c-5.7,3.3-8.8,5.4-9.3,5.9c-9.3,28.1-17.5,54-24.8,78.1c-7.2,24.1-13.6,44.5-19.4,61.6c-5.8,17.1-11,30.1-15.6,39.3
					c-4.6,9.1-9.9,12.5-15.4,10.3c-5.5-2.2-9.7-5.8-12.8-10.7c-2.9-4.9-4.9-10.7-5.8-17.7c-1.3-9.7-0.7-21,1.4-33.5
					c2.2-12.6,5.4-25.6,9.6-39.3c4.1-13.6,8.5-27,13.3-39.8c4.8-12.9,9.1-24.5,13-34.9c-16.5-1.4-26.1-11.9-28.5-31.4
					c-1.6-12-0.6-29.7,2.9-52.9c1.6-10.1,7.4-18.4,17.4-24.9C993,1590,1003.7,1585.9,1015.2,1584.5z"/>
				<path class="st4" d="M1318,1546.2c10.9-1.4,20.7-0.1,29.4,3.8c8.7,3.9,13,10.7,13.2,20.7c0.3,11.6-0.6,25.5-2.6,41.6
					c10.7-7.2,22.2-15.4,34.2-24.5c12-9.1,23.5-17,34.2-23.6c0.6,0,1-0.3,1.3-0.6c0.3-0.3,0.7-0.6,1.3-0.6c4.6-0.6,12,0.9,22.5,4.2
					c10.3,3.3,18.4,7.2,24.3,11.9c7.8,6.1,12.6,16.5,14.5,31.4c1.9,14.3,1.4,31.3-1,50.6c-2.5,19.3-5.5,39.1-8.7,59.4
					c-3.3,20.3-6.2,39.8-8.8,58.5c-2.6,18.7-3,34.8-1.4,48c1.3,10.3,4.5,18.3,9.6,23.8c5.1,5.5,12.8,7.5,23.2,6.2
					c6.4-0.9,12.5-6.1,18.5-15.9c6.1-9.9,12-21.6,18-35.1c5.9-13.6,11.4-28,16.8-43.3c5.4-15.2,10.9-29.1,16.7-41.6s11.6-22,17.4-29
					c5.8-6.8,12.2-8.7,19-5.5c5.7,2.8,8.4,11.3,8.5,25.6c0,14.3-2.2,31.4-6.7,51.3c-4.5,19.9-11.2,41.2-20,63.9
					c-8.8,22.7-19.1,43.9-31,63.5c-11.9,19.6-25.2,36.4-40.1,50.1c-14.9,13.9-30.4,21.7-46.5,23.9c-34.5,4.3-59.6-1.6-74.9-17.7
					c-15.5-16.1-24.9-37.4-28.3-63.9c-3-23.6-2.6-49.3,1.2-77.2c3.8-28,8.4-54.3,14.1-79.3c5.7-24.9,10.6-46.8,14.9-65.3
					c4.3-18.7,5.9-30.6,4.6-35.6c0-0.6-3,0.4-8.8,2.9c-5.8,2.5-12,5.7-18.5,9.4c-6.5,3.8-12.6,7.2-18.4,10.6
					c-5.7,3.3-8.8,5.4-9.3,5.9c-9.3,28.1-17.5,54-24.8,78.1c-7.2,24.1-13.6,44.5-19.4,61.6c-5.8,17.1-11,30.1-15.6,39.3
					c-4.6,9.1-9.9,12.5-15.4,10.3c-5.5-2.2-9.7-5.8-12.8-10.7c-2.9-4.9-4.9-10.7-5.8-17.7c-1.3-9.7-0.7-21,1.4-33.5
					c2.2-12.6,5.4-25.6,9.6-39.3c4.1-13.6,8.5-27,13.3-39.8c4.8-12.9,9.1-24.5,13-34.9c-16.5-1.4-26.1-11.9-28.5-31.4
					c-1.6-12-0.6-29.7,2.9-52.9c1.6-10.1,7.4-18.4,17.4-24.9C1295.7,1551.7,1306.4,1547.7,1318,1546.2z"/>
				<path class="st4" d="M1914.8,1651.4c6.7,2,10.3,10.1,10.9,24.1s-1.7,30.7-7.2,50.4c-5.4,19.7-13.9,41-25.6,64.2
					c-11.7,23-26.2,44.6-43.5,64.6c-17.4,20-37.5,37.5-60.4,52.3c-22.9,14.9-48.8,24.2-77.5,27.8c-23,2.9-43.3,1.4-61-4.5
					c-17.7-5.9-32.7-15.2-45.1-27.5c-12.5-12.5-22.2-27.5-29.4-45.4c-7.2-17.8-12-36.7-14.6-56.8c-3.6-28.7-2.6-59,3-90.7
					c5.7-31.7,15.6-61,30.1-88c14.3-27,33-49.8,55.8-68.8c22.7-19,49.3-30.3,79.8-34.2c2.9-0.3,5.4-0.6,7.4-0.4c2,0,4.2-0.1,6.5-0.4
					c21.3-2.8,38,4.3,50,20.9c12,16.7,19.6,36.9,22.6,61.1c2.2,17.2,2,35.2-0.6,53.9c-2.6,18.7-7.4,35.9-14.5,51.7
					c-7.1,15.8-16.7,29.3-28.7,40.4c-12,11.2-26.7,17.8-43.9,20c-13.8,1.7-25.6,0.3-35.6-4.2c-10-4.6-18.5-10.4-25.9-17.8
					c1,12.2,3,23.5,6.5,33.8c3.3,10.4,8,19.4,13.9,27.1c5.9,7.7,13.2,13.3,21.9,17c8.7,3.6,18.7,4.6,30.1,3.2
					c22.5-2.9,41.3-9.4,56.7-19.9c15.4-10.4,28.3-22.5,38.8-36.1s19.3-27.8,26.1-42.7c7-14.9,13-28.3,18.5-40s10.9-21.2,16.2-28
					C1901.4,1651.7,1907.6,1649.4,1914.8,1651.4z M1748.1,1558.5c-10.3,1.3-20.1,6.2-29.3,14.6c-9.1,8.4-17.1,19.1-24.1,32
					c-6.8,12.9-12.6,27.2-17.2,43.3c-4.6,16.1-7.7,32.5-9.1,49c15.2,4.5,29.3,3.3,42.5-3.6c13.2-7,24.5-16.7,34.1-29.3
					c9.6-12.6,16.5-26.4,21-41.2c4.5-14.9,5.8-27.8,3.9-38.5c-1.7-8.5-4.1-14.9-7.2-19.3c-3.2-4.2-6.5-6.8-10.1-7.5L1748.1,1558.5z"
					/>
				<path class="st4" d="M1998.2,1477.8c4.5-1.2,9.3-2.2,14.1-3c4.8-0.9,9.6-1.6,14.2-2.2c27-3.5,50.7-1.3,70.9,6.4
					c20.3,7.7,31.9,23,34.8,45.9c1.3,9.9,0.6,21.2-1.9,33.9c-2.5,12.9-7.7,27.4-15.5,43.6c-4.5,10.6-10.4,19.3-17.7,26.4
					c-7.2,7.1-16.1,11.3-26.5,12.6c-9.9,1.3-19.9-0.4-30.4-4.9c-3.6-0.7-6.7-2.6-9.1-5.8c-2.5-3.2-3.3-6.5-2.6-10.1
					c0.3-1.7,1.9-3.2,4.8-4.1c2.8-0.9,4.6-2,5.7-3.3c10.9-10.7,18.1-21,21.6-30.7s4.6-18.4,3.8-25.9c-1-7.5-3-13.2-6.1-17.2
					c-3.2-4.1-6.2-6.4-9.3-7.1c-4.8-0.6-8.5-0.7-11.4-0.3c-5.1,1.3-11,3.9-17.8,8c-6.8,4.1-13.2,9.4-19,15.9
					c-5.9,6.5-10.9,14.6-14.9,24.2s-6.2,20.4-6.4,32.7c-0.4,10.6,2.6,20.3,9,29.1c6.4,8.8,14.3,17.5,23.9,25.9s19.7,17.2,30.4,26.4
					c10.9,9.1,20.4,19.9,29,32.3c15.5,21.4,24.6,42.5,27.2,63.2c3.5,27.5-3.3,51.3-20.4,71c-17.1,19.7-40.3,32-69.4,36.8
					c-19.4,3-35.8,3.8-48.8,2.2c-13-1.6-25.5-9.4-37.2-23.8c-7-9-11.3-19.9-12.9-32.6c-1.3-9.7-0.9-19.3,1.2-28.7
					c2-9.3,4.8-17.4,8.3-24.3c3.5-6.8,7.2-11.9,11.3-15.1c4.1-3.2,7.7-3.2,11,0c3.5,4.2,5.5,8.1,6.2,11.4c0.7,3.5,1,6.7,0.7,9.6
					c-0.1,2.9-0.4,6.4-0.4,10.1c-0.1,3.8,1,8.3,3.5,13.2c2.6,6.7,5.9,11.4,10.1,14.1c4.2,2.8,8.5,4.1,13.2,4.1c4.6,0,9.3-1,13.6-3
					c4.3-2,8.1-4.6,11.3-8c5.1-5.9,7.1-12.3,5.9-19.1c-1.2-6.8-4.3-13.6-9.6-20.3c-5.2-6.7-11.6-13.3-19.1-20
					c-7.5-6.7-15.4-12.6-23.3-18.1c-8-5.4-15.2-10-21.4-13.9c-6.4-3.9-10.6-6.8-12.5-9c-15.1-13.3-26.8-27.4-35.2-42.5
					c-8.3-15.1-13.5-30.3-15.4-45.8c-2.2-17.2-0.9-34.2,4.1-50.9s13-32.3,24.3-46.9s25.5-27.2,42.6-37.8
					C1957.3,1491.6,1976.6,1483.5,1998.2,1477.8z"/>
			</g>
		</g>
		<g id="T_1_">
			<path id="T_x5F_shadow" class="st1" d="M506.4,1601.3c133.6-14.5,284.6-26.5,418.8-99.8c216.6-118.4,74.8-298.1-11.7-265.3
				c-19.7,7.4-13.2,7.1-1.7,13.9c70,41.9,37.2,136.6-30.9,184c-69.6,48.4-182.4,85.3-281.1,94.5C-234,1605.8,61,2325,269.1,2092.9
				c14.1-15.8,9-9.3-7.2-15.1l0,0c-159.4-56.1-155-402.8,111.7-457.6c21.4-4.3,43.9-8,67.2-11.2c-52.9,61.6-29.7,182.4-27.1,259.5
				c3.9,113,30,468.2-115.9,503.2c60.9,80.4,165.8-7.5,192.1-88.2c42.3-129.4,6.1-328.9,2-427
				C490.7,1825.3,453.4,1668.7,506.4,1601.3z"/>
			<path id="T" class="st4" d="M484.7,1601.3c133.6-14.5,284.6-26.5,418.8-99.8c216.6-118.4,74.8-298.1-11.7-265.3
				c-19.7,7.4-13.2,7.1-1.7,13.9c70,41.9,37.2,136.6-30.9,184c-69.6,48.4-182.4,85.3-281.1,94.5
				c-833.7,77.2-538.7,796.5-330.7,564.4c14.1-15.8,9-9.3-7.2-15.1l0,0c-159.4-56.1-155-402.8,111.7-457.6
				c21.4-4.3,43.9-8,67.2-11.2c-52.9,61.6-29.7,182.4-27.1,259.5c3.9,113,30,468.2-115.9,503.2c60.9,80.4,165.8-7.5,192.1-88.2
				c42.3-129.4,6.1-328.9,2-427C468.9,1825.3,431.7,1668.7,484.7,1601.3z"/>
			<path id="sw_1_" class="st1" d="M974.3,1334.1c-3.8-13.8-10.9-27-20.4-37.7c14.3,67.5-35.8,135.6-90.9,168.9
				c-49.7,30-113.2,51.9-176.9,65.3c63.6-9.4,126.1-24.9,186-52.9C926.6,1452.5,993.2,1403.2,974.3,1334.1z"/>
			<path id="sw_2_" class="st1" d="M84.4,2032.3c19.9,46.1,61.7,103.3,115.5,66.2c-119-45.6-131.6-241.5-61-364.6l0,0
				C82,1796.9,42.5,1934.8,84.4,2032.3z"/>
		</g>
	</g>
	<g id="Carol">
		<g id="Carol_x5F_shadow">
			<path class="st1" d="M663.7,696c-0.9,7.5-3.2,19-6.7,34.5c-3.6,15.5-6.2,31-8,46.5c-1.7,15.5-1.9,29-0.4,40.1
				c1.4,11.2,6.4,16.2,14.8,15.2c6.7-0.9,13.6-7.5,20.9-20.1c7.2-12.6,13.6-27.8,19.1-45.6c5.4-17.8,9.6-36.5,12.3-55.8
				c2.8-19.4,3.2-36.7,1.3-51.7c-1.6-12.8-5.2-22.6-10.7-30c-5.5-7.2-13.6-9.9-24.5-8c-22.9,3.5-44.9,15.4-66.4,35.5
				c-21.4,20.1-41.3,45.5-59.8,76.1c-18.5,30.6-35.2,64.8-50.1,102.4c-14.9,37.8-27.1,76.2-36.5,115.5s-15.9,77.5-19.6,114.8
				c-3.6,37.2-3.5,70.7,0.3,100.3c2.2,17,5.5,32,10.3,45.2c4.8,13.2,10.9,24.3,18.5,33.6c7.5,9.1,16.5,15.6,26.8,19.6
				c10.3,3.9,22.3,4.6,36.2,2.3c27.1-4.1,50.4-13.3,70.1-27.7c19.7-14.5,35.8-31.4,48.3-51.1c12.6-19.7,21.3-41.2,26.4-64.5
				c5.1-23.3,6.8-45.9,5.2-67.8c-0.4-3.6,1-6.4,4.5-8.4c3.5-2,6.8-1.6,10.3,1c15.4,10.3,27.2,22.3,35.4,36.1
				c8.1,13.6,13.2,28.4,15.2,44c3.2,25.4-0.6,52-11.4,80.1c-10.9,28.1-26.4,54.2-46.7,78.5c-20.3,24.3-43.8,45.2-70.7,62.7
				c-27,17.5-54.8,28.7-83.6,33.6c-34.9,5.7-65.3,4.8-91.4-2.8c-26.1-7.4-48.4-19.9-66.8-37.1c-18.4-17.2-32.9-38.8-43.6-64.5
				c-10.6-25.6-18-54.5-22-86.5c-5.2-41-5.1-85.5,0.1-133.4c5.4-48,15.1-95.9,29.3-144c14.2-48.1,32.2-95.1,54.2-140.7
				c21.9-45.6,46.9-86.9,75.2-123.6c28.3-36.7,59.1-67.2,92.6-91.7c33.5-24.5,68.5-39.6,105.3-45.5c18.7-2.9,34.9-2.2,48.7,2.6
				c13.8,4.6,25.5,12.3,35.1,22.7c9.6,10.4,17.4,23.3,23.3,38.4c5.9,15.2,10,31.9,12.3,50c3.6,29,2.9,60.3-2.2,93.6
				c-5.1,33.5-13.8,64.6-25.9,93.5c-12.2,28.8-27.1,53.5-44.8,73.8c-17.7,20.3-37.7,32.2-60,35.6c-25.2,4.5-43.8,1.3-55.5-9.6
				c-11.7-10.7-18.8-25.2-21.2-43.3c-2-15.6-1-33.2,3-52.3c4.1-19.3,9.6-37.4,16.5-54.5c7.1-17.1,15.1-32.3,24.2-45.4
				c9.1-13,17.7-21.7,25.8-25.8C660.8,690.5,663.1,691.8,663.7,696z"/>
			<path class="st1" d="M1213.1,849.8c5.9,1,9.7,8.4,11.2,22.3s0.7,30.9-2.3,51.1c-3,20.3-8.4,42.5-16.1,66.5
				c-7.8,24.1-17.8,46.7-30,67.8c-12.2,21.2-27,39.1-44,54.2c-17.1,15.1-36.2,23.9-57.5,26.5c-15.5,2-29.8-0.9-43.2-8.5
				c-13.2-7.7-24.1-19.7-32.6-36.2c-11.3,16.7-24.2,31.2-38.8,43.5c-14.5,12.3-30.7,19.7-48.5,21.9c-20.1,2.6-37.8,1.4-53-3.3
				c-15.2-4.8-28-12.3-38.4-22.7c-10.3-10.3-18.7-22.9-24.9-37.5c-6.2-14.6-10.4-30.9-12.8-48.7c-3.8-29.8-2.3-62,4.5-96.4
				c6.8-34.3,18.1-66.5,34.2-96.5s36.1-55.6,60-76.7c23.9-21.2,51.1-33.6,81.6-37.4c20.7-2.6,37.8,2.2,51.3,14.2
				c13.5,12.2,24.3,27,32.3,44.3c6.5-4.3,13.8-7,21.7-8c9.7-1.3,17.1,0.9,21.9,6.4c4.8,5.5,7.8,12.9,9,22c1,8.1,0.9,16.7-0.3,25.9
				c-1.2,9.3-3,18.4-5.8,27.4c-2.6,9.1-5.8,17.7-9.4,25.8c-3.6,8.1-7.2,14.3-10.7,18.8c-0.7,3.6-1.2,11.4-1.4,23.5
				c-0.3,12,0.4,24.6,2.2,37.8c1.7,13.8,5.2,25.9,10.3,36.4c5.1,10.4,12.9,15.1,23.2,13.8c5.2-0.7,10.9-5.7,17-14.8
				c6.1-9.3,12.3-20.6,18.5-33.9c6.2-13.3,12.5-27.7,18.7-43s12.5-29.6,18.7-42.7c6.2-13,12.2-23.8,17.8-32
				C1203.1,853.2,1208.3,849.3,1213.1,849.8z M927.2,1049.8c10.3-1.3,20-5.5,29.1-12.5c9-7,17-15.6,23.9-25.8
				c-0.6-13.9,0-29.4,1.6-46.2c1.6-16.8,4.2-33.6,7.7-50.4c3.5-16.8,7.8-33,13.2-48.5c5.4-15.5,11.6-29.1,19-40.6
				c-2.3-9-5.9-16.7-10.7-22.7c-4.9-6.1-11.3-8.7-19.4-7.7c-16.7,2.2-31.7,11-45.2,26.8c-13.5,15.8-24.9,34.2-34.2,55.6
				c-9.3,21.3-16.1,43.6-20.4,66.9c-4.3,23.3-5.4,43.9-3.2,61.7c1.7,13.8,5.8,24.8,12,33C906.9,1047.9,915.8,1051.3,927.2,1049.8z"
				/>
			<path class="st1" d="M1238.9,679.3c10.9-1.4,20.7-0.1,29.4,3.8c8.7,3.9,13,10.7,13.2,20.7c0.3,11.6-0.6,25.5-2.6,41.6
				c10.7-7.2,22.2-15.4,34.2-24.5c12-9.1,23.5-17,34.2-23.6c0.6,0,1-0.3,1.3-0.6c0.3-0.3,0.7-0.6,1.3-0.6c4.6-0.6,12,0.9,22.5,4.2
				c10.3,3.3,18.4,7.2,24.3,11.9c7.8,6.1,12.6,16.5,14.5,31.4c1.9,14.3,1.4,31.2-1,50.6c-2.5,19.3-5.5,39.1-8.7,59.4
				c-3.3,20.3-6.2,39.8-8.8,58.5c-2.6,18.7-3,34.8-1.4,48c1.3,10.3,4.5,18.3,9.6,23.8c5.1,5.5,12.8,7.5,23.2,6.2
				c6.4-0.9,12.5-6.1,18.5-15.9c6.1-9.9,12-21.6,18-35.1c5.9-13.6,11.4-28,16.8-43.3c5.4-15.2,10.9-29.1,16.7-41.6
				c5.8-12.5,11.6-22,17.4-29c5.8-6.8,12.2-8.7,19-5.5c5.7,2.8,8.4,11.3,8.5,25.6c0,14.3-2.2,31.4-6.7,51.3
				c-4.5,19.9-11.2,41.2-20,63.9c-8.8,22.7-19.1,43.9-31,63.5c-11.9,19.6-25.2,36.4-40.1,50.1c-14.9,13.9-30.4,21.7-46.5,23.9
				c-34.5,4.3-59.6-1.6-74.9-17.7c-15.5-16.1-24.9-37.4-28.3-63.9c-3-23.6-2.6-49.3,1.2-77.2c3.8-28,8.4-54.3,14.1-79.3
				c5.7-24.9,10.6-46.8,14.9-65.3c4.3-18.7,5.9-30.6,4.6-35.6c0-0.6-3,0.4-8.8,2.9s-12,5.7-18.5,9.4c-6.5,3.8-12.6,7.2-18.4,10.6
				c-5.7,3.3-8.8,5.4-9.3,5.9c-9.3,28.1-17.5,54-24.8,78.1c-7.2,24.1-13.6,44.5-19.4,61.6c-5.8,17.1-11,30.1-15.6,39.3
				c-4.6,9.1-9.9,12.5-15.4,10.3c-5.5-2.2-9.9-5.8-12.8-10.7s-4.9-10.7-5.8-17.7c-1.3-9.7-0.7-20.9,1.4-33.5
				c2.2-12.6,5.4-25.6,9.6-39.3c4.1-13.6,8.5-27,13.3-39.8c4.8-12.9,9.1-24.5,13-34.9c-16.5-1.4-26.1-11.9-28.5-31.4
				c-1.6-12-0.6-29.7,2.9-52.9c1.6-10.1,7.4-18.4,17.4-24.9C1216.6,684.7,1227.3,680.8,1238.9,679.3z"/>
			<path class="st1" d="M1844.1,780.7c4.3,2.3,7.2,8.1,8.7,17.2c1.4,9.1,1.2,20-0.7,32.5c-1.9,12.5-5.7,26.1-11,40.9
				c-5.5,14.8-12.5,28.4-21,41.2c-8.5,12.8-19.3,23.8-31.7,32.9c-12.6,9.1-26.7,14.8-42.2,16.7c-4.6,0.6-9,1-13,1.2
				c-4.1,0.3-7.8,0.3-11.4,0.1c-13.3,28.5-29.7,52.9-49.1,72.7c-19.4,19.9-42,31.6-68,34.9c-20.1,2.6-37.8,1.2-53.2-4.2
				c-15.2-5.4-28.4-13.5-39.4-24.3s-19.7-24.1-26.1-39.7c-6.4-15.5-10.7-32.5-13-51c-3.8-29.3-2.5-60.3,3.6-92.9
				c6.1-32.6,16.4-63,31-91.1c14.5-28.1,33.2-52,55.8-71.9c22.6-19.9,48.5-31.6,78-35.2c16.1-2,30.4-0.3,43.2,5.1
				c12.6,5.4,23.6,13.3,32.7,23.9c9.3,10.6,16.5,23.5,22,38.8c5.5,15.4,9.3,32,11.6,49.8c2.3,18.4,2.9,37.8,1.6,58.1
				c-1.3,20.3-3.8,40.3-7.7,60.1c10,0.4,18.7-2.5,26.1-9c7.4-6.5,13.8-14.5,19.3-23.9c5.5-9.4,10.4-19.6,14.6-30.3
				c4.2-10.7,8.3-20.3,12.2-28.7c3.9-8.4,8-15.1,12.3-20C1833.6,779.9,1838.5,778.6,1844.1,780.7z M1667.9,711.8
				c-15.5,2-29.7,10.3-42.5,25.1c-12.8,14.8-23.2,32.3-31.4,52.6s-14.2,42-17.7,64.9c-3.5,22.9-4.2,43.3-1.9,61.1
				c2.2,16.7,6.8,30,14.2,39.8s17.7,13.9,30.9,12.3c8.7-1.2,16.7-3.9,24.3-8.4c7.7-4.5,14.8-10.3,21.4-17.5
				c-10.9-11.4-17.4-26.7-19.9-45.6c-1.7-13.8-1.3-28.1,1.2-43c2.5-14.9,6.4-29.4,11.6-43.5c5.2-14.1,11.3-26.8,18.4-38.3
				c7-11.4,14.2-20.4,21.6-27.2c-3.6-10-7.8-18.1-12.8-24.2C1680.8,713.6,1674.9,710.9,1667.9,711.8z"/>
			<path class="st1" d="M1934.4,753.5c-3.9,11-6.8,21.9-9,32.7c-1.7,9.6-3.2,20-4.3,31.2c-1.2,11.3-1.2,22.3,0.3,33.3
				c0.7,5.8,1.7,11,2.9,15.8c1.2,4.8,3.2,9.4,6.1,13.6c5.9,10.3,13.6,14.9,22.7,13.8c5.8-0.7,11.6-3.8,17.7-9.3
				c6.1-5.4,11.9-12,17.7-19.7c5.8-7.7,11.3-16.2,16.5-25.4c5.2-9.1,9.7-18,13.3-26.7c9-21.6,18.3-38.1,28-49.6
				c9.7-11.4,17.7-17.5,23.9-18.4c5.2-0.7,9,2,11.6,8.1c2.5,6.1,3.2,15.6,1.9,28.7c-1.2,9.6-4.2,22-9.3,37.5
				c-5.1,15.5-11.7,32.3-20,50.3c-8.3,18-17.8,36.2-28.5,54.9c-10.9,18.5-22.2,35.5-34.3,50.7c-12,15.2-24.5,28.1-37.2,38.4
				c-12.8,10.3-25.1,16.4-37.2,17.8c-13.8,1.7-26.2,1.6-37.4-0.6c-11-2.2-20.9-7.4-29.1-16.1c-8.4-8.5-15.6-21.2-21.9-37.5
				c-6.1-16.5-11-38.3-14.3-65.2c-3-23.6-3.2-51.6-0.6-84c2.6-32.5,7.4-66.2,14.3-101.3c7-35.1,15.9-70.1,27.1-105
				c11-34.9,23.5-66.5,37.1-94.5c13.6-28,28.5-51.1,44.6-69.6c16.1-18.4,33-28.7,50.9-31c11.4-1.4,22,0.4,31.4,5.7
				c6.2,3.3,10.9,7.8,13.9,13.6c3,5.8,5.1,12.6,6.1,20.7c1.4,10.9,0.9,23.5-1.4,37.4c-2.3,14.1-5.8,28.8-10.6,44.3
				c-4.8,15.5-10.3,31.4-16.8,47.7c-6.4,16.2-13,31.9-20,46.8C1974.5,678.9,1955.8,715.8,1934.4,753.5z"/>
		</g>
		<g id="Carol_1_">
			<path class="st4" d="M641.9,696c-0.9,7.5-3.2,19-6.7,34.5c-3.6,15.5-6.2,31-8,46.5c-1.7,15.5-1.9,29-0.4,40.1
				c1.4,11.2,6.4,16.2,14.8,15.2c6.7-0.9,13.6-7.5,20.9-20.1c7.2-12.6,13.6-27.8,19.1-45.6c5.4-17.8,9.6-36.5,12.3-55.8
				c2.8-19.4,3.2-36.7,1.3-51.7c-1.6-12.8-5.2-22.6-10.7-30c-5.5-7.2-13.6-9.9-24.5-8c-22.9,3.5-44.9,15.4-66.4,35.5
				c-21.4,20.1-41.3,45.5-59.8,76.1c-18.5,30.6-35.2,64.8-50.1,102.4c-14.9,37.8-27.1,76.2-36.5,115.5s-15.9,77.5-19.6,114.8
				c-3.6,37.2-3.5,70.7,0.3,100.3c2.2,17,5.5,32,10.3,45.2s10.9,24.3,18.5,33.6c7.5,9.1,16.5,15.6,26.8,19.6
				c10.3,3.9,22.3,4.6,36.2,2.3c27.1-4.1,50.4-13.3,70.1-27.7c19.7-14.5,35.8-31.4,48.3-51.1c12.6-19.7,21.3-41.2,26.4-64.5
				c5.1-23.3,6.8-45.9,5.2-67.8c-0.4-3.6,1-6.4,4.5-8.4c3.5-2,6.8-1.6,10.3,1c15.4,10.3,27.2,22.3,35.4,36.1
				c8.1,13.6,13.2,28.4,15.2,44c3.2,25.4-0.6,52-11.4,80.1c-10.9,28.1-26.4,54.2-46.7,78.5c-20.3,24.3-43.8,45.2-70.7,62.7
				c-27,17.5-54.8,28.7-83.6,33.6c-34.9,5.7-65.3,4.8-91.4-2.8c-26.1-7.4-48.4-19.9-66.8-37.1c-18.4-17.2-32.9-38.8-43.6-64.5
				c-10.6-25.6-18-54.5-22-86.5c-5.2-41-5.1-85.5,0.1-133.4c5.4-48,15.1-95.9,29.3-144c14.2-48.1,32.2-95.1,54.2-140.7
				c21.9-45.6,46.9-86.9,75.2-123.6s59.1-67.2,92.6-91.7c33.5-24.5,68.5-39.6,105.3-45.5c18.7-2.9,34.9-2.2,48.7,2.6
				c13.8,4.6,25.5,12.3,35.1,22.7c9.6,10.4,17.4,23.3,23.3,38.4c5.9,15.2,10,31.9,12.3,50c3.6,29,2.9,60.3-2.2,93.6
				c-5.1,33.5-13.8,64.6-25.9,93.5c-12.2,28.8-27.1,53.5-44.8,73.8c-17.7,20.3-37.7,32.2-60,35.6c-25.2,4.5-43.8,1.3-55.5-9.6
				c-11.7-10.7-18.8-25.2-21.2-43.3c-2-15.6-1-33.2,3-52.3c4.1-19.3,9.6-37.4,16.5-54.5c7.1-17.1,15.1-32.3,24.2-45.4
				c9.1-13,17.7-21.7,25.8-25.8C639,690.5,641.3,691.8,641.9,696z"/>
			<path class="st4" d="M1191.4,849.8c5.9,1,9.7,8.4,11.2,22.3s0.7,30.9-2.3,51.1c-3,20.3-8.4,42.5-16.1,66.5
				c-7.8,24.1-17.8,46.7-30,67.8c-12.2,21.2-27,39.1-44,54.2c-17.1,15.1-36.2,23.9-57.5,26.5c-15.5,2-29.8-0.9-43.2-8.5
				c-13.2-7.7-24.1-19.7-32.6-36.2c-11.3,16.7-24.2,31.2-38.8,43.5c-14.5,12.3-30.7,19.7-48.5,21.9c-20.1,2.6-37.8,1.4-53-3.3
				c-15.2-4.8-28-12.3-38.4-22.7c-10.3-10.3-18.7-22.9-24.9-37.5s-10.4-30.9-12.8-48.7c-3.8-29.8-2.3-62,4.5-96.4
				c6.8-34.3,18.1-66.5,34.2-96.5c16.1-30,36.1-55.6,60-76.7c23.9-21.2,51.1-33.6,81.6-37.4c20.7-2.6,37.8,2.2,51.3,14.2
				c13.5,12.2,24.3,27,32.3,44.3c6.5-4.3,13.8-7,21.7-8c9.7-1.3,17.1,0.9,21.9,6.4c4.8,5.5,7.8,12.9,9,22c1,8.1,0.9,16.7-0.3,25.9
				c-1.2,9.3-3,18.4-5.8,27.4c-2.6,9.1-5.8,17.7-9.4,25.8c-3.6,8.1-7.2,14.3-10.7,18.8c-0.7,3.6-1.2,11.4-1.4,23.5
				c-0.3,12,0.4,24.6,2.2,37.8c1.7,13.8,5.2,25.9,10.3,36.4s12.9,15.1,23.2,13.8c5.2-0.7,10.9-5.7,17-14.8
				c6.1-9.3,12.3-20.6,18.5-33.9c6.2-13.3,12.5-27.7,18.7-43s12.5-29.6,18.7-42.7c6.2-13,12.2-23.8,17.8-32
				C1181.4,853.2,1186.6,849.3,1191.4,849.8z M905.5,1049.8c10.3-1.3,20-5.5,29.1-12.5c9-7,17-15.6,23.9-25.8
				c-0.6-13.9,0-29.4,1.6-46.2c1.6-16.8,4.2-33.6,7.7-50.4c3.5-16.8,7.8-33,13.2-48.5c5.4-15.5,11.6-29.1,19-40.6
				c-2.3-9-5.9-16.7-10.7-22.7c-4.9-6.1-11.3-8.7-19.4-7.7c-16.7,2.2-31.7,11-45.2,26.8s-24.9,34.2-34.2,55.6
				c-9.3,21.3-16.1,43.6-20.4,66.9c-4.3,23.3-5.4,43.9-3.2,61.7c1.7,13.8,5.8,24.8,12,33C885.2,1047.9,894,1051.3,905.5,1049.8z"/>
			<path class="st4" d="M1217.2,679.3c10.9-1.4,20.7-0.1,29.4,3.8c8.7,3.9,13,10.7,13.2,20.7c0.3,11.6-0.6,25.5-2.6,41.6
				c10.7-7.2,22.2-15.4,34.2-24.5c12-9.1,23.5-17,34.2-23.6c0.6,0,1-0.3,1.3-0.6c0.3-0.3,0.7-0.6,1.3-0.6c4.6-0.6,12,0.9,22.5,4.2
				c10.3,3.3,18.4,7.2,24.3,11.9c7.8,6.1,12.6,16.5,14.5,31.4c1.9,14.3,1.4,31.2-1,50.6c-2.5,19.3-5.5,39.1-8.7,59.4
				c-3.3,20.3-6.2,39.8-8.8,58.5c-2.6,18.7-3,34.8-1.4,48c1.3,10.3,4.5,18.3,9.6,23.8c5.1,5.5,12.8,7.5,23.2,6.2
				c6.4-0.9,12.5-6.1,18.5-15.9s12-21.6,18-35.1c5.9-13.6,11.4-28,16.8-43.3c5.4-15.2,10.9-29.1,16.7-41.6c5.8-12.5,11.6-22,17.4-29
				c5.8-6.8,12.2-8.7,19-5.5c5.7,2.8,8.4,11.3,8.5,25.6c0,14.3-2.2,31.4-6.7,51.3c-4.5,19.9-11.2,41.2-20,63.9
				c-8.8,22.7-19.1,43.9-31,63.5c-11.9,19.6-25.2,36.4-40.1,50.1c-14.9,13.9-30.4,21.7-46.5,23.9c-34.5,4.3-59.6-1.6-74.9-17.7
				c-15.5-16.1-24.9-37.4-28.3-63.9c-3-23.6-2.6-49.3,1.2-77.2c3.8-28,8.4-54.3,14.1-79.3c5.7-24.9,10.6-46.8,14.9-65.3
				c4.3-18.7,5.9-30.6,4.6-35.6c0-0.6-3,0.4-8.8,2.9c-5.8,2.5-12,5.7-18.5,9.4c-6.5,3.8-12.6,7.2-18.4,10.6
				c-5.7,3.3-8.8,5.4-9.3,5.9c-9.3,28.1-17.5,54-24.8,78.1s-13.6,44.5-19.4,61.6c-5.8,17.1-11,30.1-15.6,39.3
				c-4.6,9.1-9.9,12.5-15.4,10.3c-5.5-2.2-9.9-5.8-12.8-10.7s-4.9-10.7-5.8-17.7c-1.3-9.7-0.7-20.9,1.4-33.5
				c2.2-12.6,5.4-25.6,9.6-39.3c4.1-13.6,8.5-27,13.3-39.8c4.8-12.9,9.1-24.5,13-34.9c-16.5-1.4-26.1-11.9-28.5-31.4
				c-1.6-12-0.6-29.7,2.9-52.9c1.6-10.1,7.4-18.4,17.4-24.9C1194.9,684.7,1205.6,680.8,1217.2,679.3z"/>
			<path class="st4" d="M1822.4,780.7c4.3,2.3,7.2,8.1,8.7,17.2c1.4,9.1,1.2,20-0.7,32.5c-1.9,12.5-5.7,26.1-11,40.9
				c-5.5,14.8-12.5,28.4-21,41.2c-8.5,12.8-19.3,23.8-31.7,32.9c-12.6,9.1-26.7,14.8-42.2,16.7c-4.6,0.6-9,1-13,1.2
				c-4.1,0.3-7.8,0.3-11.4,0.1c-13.3,28.5-29.7,52.9-49.1,72.7c-19.4,19.9-42,31.6-68,34.9c-20.1,2.6-37.8,1.2-53.2-4.2
				c-15.2-5.4-28.4-13.5-39.4-24.3s-19.7-24.1-26.1-39.7c-6.4-15.5-10.7-32.5-13-51c-3.8-29.3-2.5-60.3,3.6-92.9
				c6.1-32.6,16.4-63,31-91.1c14.5-28.1,33.2-52,55.8-71.9c22.6-19.9,48.5-31.6,78-35.2c16.1-2,30.4-0.3,43.2,5.1
				c12.6,5.4,23.6,13.3,32.7,23.9c9.3,10.6,16.5,23.5,22,38.8c5.5,15.4,9.3,32,11.6,49.8c2.3,18.4,2.9,37.8,1.6,58.1
				s-3.8,40.3-7.7,60.1c10,0.4,18.7-2.5,26.1-9c7.4-6.5,13.8-14.5,19.3-23.9c5.5-9.4,10.4-19.6,14.6-30.3
				c4.2-10.7,8.3-20.3,12.2-28.7s8-15.1,12.3-20C1811.8,779.9,1816.7,778.6,1822.4,780.7z M1646.2,711.8
				c-15.5,2-29.7,10.3-42.5,25.1c-12.8,14.8-23.2,32.3-31.4,52.6s-14.2,42-17.7,64.9c-3.5,22.9-4.2,43.3-1.9,61.1
				c2.2,16.7,6.8,30,14.2,39.8s17.7,13.9,30.9,12.3c8.7-1.2,16.7-3.9,24.3-8.4c7.7-4.5,14.8-10.3,21.4-17.5
				c-10.9-11.4-17.4-26.7-19.9-45.6c-1.7-13.8-1.3-28.1,1.2-43c2.5-14.9,6.4-29.4,11.6-43.5c5.2-14.1,11.3-26.8,18.4-38.3
				c7-11.4,14.2-20.4,21.6-27.2c-3.6-10-7.8-18.1-12.8-24.2C1659.1,713.6,1653.2,710.9,1646.2,711.8z"/>
			<path class="st4" d="M1912.7,753.5c-3.9,11-6.8,21.9-9,32.7c-1.7,9.6-3.2,20-4.3,31.2c-1.2,11.3-1.2,22.3,0.3,33.3
				c0.7,5.8,1.7,11,2.9,15.8c1.2,4.8,3.2,9.4,6.1,13.6c5.9,10.3,13.6,14.9,22.7,13.8c5.8-0.7,11.6-3.8,17.7-9.3
				c6.1-5.4,11.9-12,17.7-19.7c5.8-7.7,11.3-16.2,16.5-25.4c5.2-9.1,9.7-18,13.3-26.7c9-21.6,18.3-38.1,28-49.6
				c9.7-11.4,17.7-17.5,23.9-18.4c5.2-0.7,9,2,11.6,8.1c2.5,6.1,3.2,15.6,1.9,28.7c-1.2,9.6-4.2,22-9.3,37.5
				c-5.1,15.5-11.7,32.3-20,50.3c-8.3,18-17.8,36.2-28.5,54.9c-10.9,18.5-22.2,35.5-34.3,50.7c-12,15.2-24.5,28.1-37.2,38.4
				c-12.8,10.3-25.1,16.4-37.2,17.8c-13.8,1.7-26.2,1.6-37.4-0.6c-11-2.2-20.9-7.4-29.1-16.1c-8.4-8.5-15.6-21.2-21.9-37.5
				c-6.1-16.5-11-38.3-14.3-65.2c-3-23.6-3.2-51.6-0.6-84c2.6-32.5,7.4-66.2,14.3-101.3c7-35.1,15.9-70.1,27.1-105
				c11-34.9,23.5-66.5,37.1-94.5c13.6-28,28.5-51.1,44.6-69.6c16.1-18.4,33-28.7,50.9-31c11.4-1.4,22,0.4,31.4,5.7
				c6.2,3.3,10.9,7.8,13.9,13.6c3,5.8,5.1,12.6,6.1,20.7c1.4,10.9,0.9,23.5-1.4,37.4c-2.3,14.1-5.8,28.8-10.6,44.3
				c-4.8,15.5-10.3,31.4-16.8,47.7c-6.4,16.2-13,31.9-20,46.8C1952.8,678.9,1934.1,715.8,1912.7,753.5z"/>
		</g>
		<path id="sw" class="st3" d="M1532.6,823.2c-39.8,79.4-37.1,222.7,84.9,180.1C1505.2,1077.6,1444.8,939.7,1532.6,823.2z"/>
	</g>
	<g id="p">
		<path class="st1" d="M2212.7,1874.8c29.4,11.2,62.3-3.6,73.5-33c0.1-0.4,0.1-0.7,0.4-1.2l0,0c0,0,149-391.1,162.7-427.3
			c37.4-191,100.4-243,100.4-243l14.8-38.7l-21.2-8.1c28-63.5,103.3-153.7,183.3-249.5c96.2-114.9,195.6-233.9,219.4-316.7
			c25.6-89.7,3.6-149.4-19.3-183.6c-19.7-29.3-48-51.7-79.3-63.6c-11.7-4.5-23.9-7.5-36.2-8.8l-17.4-1.9c-5.4-2.8-10.9-5.4-16.5-7.5
			c-31.3-11.9-67.2-13.9-101.4-5.1c-40,10.3-96.1,40.3-136.6,124.2c-37.5,77.7-42.3,232.6-46.8,382.5
			c-3.8,120.1-7.4,233.4-26.8,300.7l-17.2-6.7l-14.8,38.7c0,0,7.1,113.3-90.1,245.7c-12,31.3-163.3,428.3-163.3,428.3l0.1,0.1
			c-0.1,0.3-0.4,0.7-0.4,1C2168.7,1830.7,2183.5,1863.7,2212.7,1874.8z M2907.5,386.5c20.3,30.3,39.7,83.5,16.4,164.6
			c-22.5,78.2-120.3,195.3-214.9,308.3c-19.4,23.2-38.5,46.2-56.9,68.5c100.4-153,223.6-342.2,236.8-370.5
			c39.8-94.8-10.7-180.7-44.9-223.9C2869,344.3,2891.7,363,2907.5,386.5z M2828.3,350.4c31,39.8,74.2,115.5,39.7,197.8
			c-10.3,22-96.1,155-182.1,286.6c73.2-136.2,145.2-272.7,156.9-303.4C2858.3,490.2,2845.8,405,2828.3,350.4z M2821.3,523.3
			c-13.3,34.9-110.6,217.3-194.7,373.3c105.5-243.4,121.3-288.6,137.8-335.9c5.4-15.4,10.7-30.9,19.4-53.8
			c22.9-60.1,24.8-111.3,23.3-146.5C2821.3,407,2836.5,483.1,2821.3,523.3z M2725.8,360.4c-28,20.3-77.4,60.4-92.3,99.8
			c-11.7,30.7-48.7,180.5-84.6,330.9c23.3-155.3,47.5-311.5,54.5-334.7c29-84.8,112-112.6,161.6-121.9
			C2747.6,345,2731.5,356.3,2725.8,360.4z M2773.9,356.3c-24.5,25.4-57.1,64.9-80,124.9c-8.7,22.9-15.1,38-21.2,53
			c-19.1,46.4-37.5,90.6-120.7,342.5c40.9-172.4,89.5-373.4,102.9-408.3C2670.2,428.3,2732.1,381.5,2773.9,356.3z M2515,794.1
			c4.5-147.5,9.3-299.9,44.6-373.3c36.7-76.1,86.4-102.9,121.7-112c27.5-7.1,56.9-5.9,82.7,2.8c-54.2,9.6-149.2,40.3-182.6,137.8
			c-8.8,29.7-42.7,252.7-69.4,433.7C2513.3,854.3,2514.3,824.5,2515,794.1z M2503.8,1097.9c144.3-444.4,166.6-498.2,190.1-555
			c6.4-15.2,12.8-30.6,21.4-53.8c19.6-51.3,46.8-86.6,69-110.6c-0.1,31.7-4.2,73-22.2,120c-8.8,23-14.2,38.8-19.7,54.3
			c-20.1,58-39.4,113-227.2,540.8c-4.3,6.7-7.8,11.7-10.1,15.4l-2.8-1C2502.8,1105,2503.3,1101.8,2503.8,1097.9z M2203.5,1802.7
			c6.2-16.5,41.2-67.5,57.5-61.3c16.5,6.2,8.4,67.5,2.2,84c-6.2,16.5-24.8,24.8-41.2,18.5
			C2205.4,1837.6,2197.1,1819.2,2203.5,1802.7z"/>
		<path class="st4" d="M2191.4,1874.8c29.4,11.2,62.3-3.6,73.5-33c0.1-0.4,0.1-0.7,0.4-1.2l0,0c0,0,149-391.1,162.7-427.3
			c37.4-191,100.4-243,100.4-243l14.8-38.7l-21.2-8.1c28-63.5,103.3-153.7,183.3-249.5c96.2-114.9,195.6-233.9,219.4-316.7
			c25.6-89.7,3.6-149.4-19.3-183.6c-19.7-29.3-48-51.7-79.3-63.6c-11.7-4.5-23.9-7.5-36.2-8.8l-17.4-1.9c-5.4-2.8-10.9-5.4-16.5-7.5
			c-31.3-11.9-67.2-13.9-101.4-5.1c-40,10.3-96.1,40.3-136.6,124.2c-37.5,77.7-42.3,232.6-46.8,382.5
			c-3.8,120.1-7.4,233.4-26.8,300.7l-17.2-6.7l-14.8,38.7c0,0,7.1,113.3-90.1,245.7c-11.9,31.3-163.2,428.3-163.2,428.3l0.1,0.1
			c-0.1,0.3-0.4,0.7-0.4,1C2147.4,1830.7,2162.2,1863.7,2191.4,1874.8z M2886.2,386.5c20.3,30.3,39.7,83.5,16.4,164.6
			c-22.5,78.2-120.3,195.3-214.9,308.3c-19.4,23.2-38.5,46.2-56.9,68.5c100.4-153,223.6-342.2,236.8-370.5
			c39.8-94.8-10.7-180.7-44.9-223.9C2847.7,344.3,2870.4,363,2886.2,386.5z M2806.8,350.4c31,39.8,74.2,115.5,39.7,197.8
			c-10.3,22-96.1,155-182.1,286.6c73.2-136.2,145.2-272.7,156.9-303.4C2837,490.2,2824.5,405,2806.8,350.4z M2800,523.3
			c-13.3,34.9-110.6,217.3-194.7,373.3c105.5-243.4,121.3-288.6,137.8-335.9c5.4-15.4,10.7-30.9,19.4-53.8
			c22.9-60.1,24.8-111.3,23.3-146.5C2800,407,2815.2,483.1,2800,523.3z M2704.5,360.4c-28,20.3-77.4,60.4-92.3,99.8
			c-11.7,30.7-48.7,180.5-84.6,330.9c23.3-155.3,47.5-311.5,54.5-334.7c29-84.8,112-112.6,161.6-121.9
			C2726.1,345,2710.2,356.3,2704.5,360.4z M2752.6,356.3c-24.5,25.4-57.1,64.9-80,124.9c-8.7,22.9-15.1,38-21.2,53
			c-19.1,46.4-37.5,90.6-120.7,342.5c40.9-172.4,89.5-373.4,102.9-408.3C2648.9,428.3,2710.8,381.5,2752.6,356.3z M2493.7,794.1
			c4.5-147.5,9.3-299.9,44.6-373.3c36.7-76.1,86.4-102.9,121.7-112c27.5-7.1,56.9-5.9,82.7,2.8c-54.2,9.6-149.2,40.3-182.6,137.8
			c-8.8,29.7-42.7,252.7-69.4,433.7C2492,854.3,2492.8,824.5,2493.7,794.1z M2482.5,1097.9c144.3-444.4,166.6-498.2,190.1-555
			c6.4-15.2,12.8-30.6,21.4-53.8c19.6-51.3,46.8-86.6,69-110.6c-0.1,31.7-4.2,73-22.2,120c-8.8,23-14.2,38.8-19.7,54.3
			c-20.1,58-39.4,113-227.2,540.8c-4.3,6.7-7.8,11.7-10.1,15.4l-2.8-1C2481.5,1105,2482,1101.8,2482.5,1097.9z M2182,1802.7
			c6.2-16.5,41.2-67.5,57.5-61.3c16.5,6.2,8.4,67.5,2.2,84c-6.2,16.5-24.8,24.8-41.2,18.5C2184.1,1837.6,2175.8,1819.2,2182,1802.7z
			"/>
	</g>
</g>
</svg>
