<?xml version="1.0" encoding="utf-8"?>
<!-- Generator: Adobe Illustrator 25.3.1, SVG Export Plug-In . SVG Version: 6.00 Build 0)  -->
<svg version="1.1" id="Camada_1" xmlns:svgjs="http://svgjs.com/svgjs"
	 xmlns="http://www.w3.org/2000/svg" xmlns:xlink="http://www.w3.org/1999/xlink" x="0px" y="0px" viewBox="0 0 512 512"
	 style="enable-background:new 0 0 512 512;" xml:space="preserve">
<style type="text/css">
	.st0{fill:#68DCF1;}
	.st1{fill:#D8F2F6;}
	.st2{fill:#F5F5F5;}
	.st3{fill:#232938;}
</style>
<g id="_x32_4_x2F_6">
	<circle class="st0" cx="256" cy="256" r="192"/>
	<circle class="st1" cx="256" cy="256" r="160"/>
	<path class="st2" d="M256,96c-88.2-0.1-159.9,71.3-160,159.6c0,25.2,5.9,50,17.3,72.4H320c13.3,0,24-10.7,24-24V122.4
		C317.9,105.2,287.3,96,256,96z"/>
	<path class="st3" d="M215.5,500.7c5.3,0.9,10.7,1.6,16.1,2.1l1.6-15.9c-5.1-0.5-10.1-1.2-15-2L215.5,500.7z"/>
	<path class="st3" d="M44.5,160.5l-14.6-6.6c-2.2,4.9-4.3,10-6.2,15l15,5.6C40.5,169.8,42.4,165.1,44.5,160.5z"/>
	<path class="st3" d="M76.5,109.1L64.1,98.9c-3.4,4.2-6.7,8.5-9.9,12.9l13,9.3C70.2,117,73.3,113,76.5,109.1z"/>
	<path class="st3" d="M58.8,133.7l-13.6-8.4c-2.8,4.6-5.5,9.3-8.1,14l14.1,7.5C53.6,142.4,56.1,138,58.8,133.7z"/>
	<path class="st3" d="M97.2,86.9l-11-11.7c-3.9,3.7-7.8,7.5-11.4,11.5l11.7,10.9C89.9,93.9,93.5,90.4,97.2,86.9z"/>
	<path class="st3" d="M202.8,30.1l-3.7-15.6c-5.3,1.2-10.5,2.7-15.7,4.2l4.7,15.3C193,32.6,197.9,31.3,202.8,30.1z"/>
	<path class="st3" d="M27,218.4l-15.8-2.6c-0.9,5.3-1.6,10.7-2.1,16.1l15.9,1.5C25.6,228.4,26.2,223.4,27,218.4L27,218.4z"/>
	<path class="st3" d="M232.7,25.2l-1.6-15.9c-5.4,0.5-10.8,1.2-16.1,2.1l2.6,15.8C222.6,26.3,227.6,25.7,232.7,25.2z"/>
	<path class="st3" d="M146.2,51.5l-7.6-14.1c-4.8,2.6-9.4,5.3-14,8.1l8.5,13.6C137.4,56.5,141.8,53.9,146.2,51.5z"/>
	<path class="st3" d="M120.6,67.6l-9.4-13c-4.4,3.2-8.7,6.5-12.8,9.9l10.2,12.3C112.5,73.7,116.5,70.6,120.6,67.6z"/>
	<path class="st3" d="M173.8,39l-5.7-15c-5.1,1.9-10,4-15,6.2l6.6,14.6C164.4,42.7,169.1,40.8,173.8,39z"/>
	<path class="st3" d="M33.8,188.9l-15.3-4.6c-1.6,5.1-2.9,10.4-4.1,15.7l15.6,3.6C31.1,198.6,32.4,193.7,33.8,188.9L33.8,188.9z"/>
	<path class="st3" d="M124.9,466.6c4.6,2.9,9.3,5.6,14,8.1l7.6-14.1c-4.5-2.4-8.8-4.9-13.1-7.6L124.9,466.6z"/>
	<path class="st3" d="M24,256c0-2.5,0-4.9,0.1-7.4l-16-0.5C8,250.7,8,253.3,8,256c0,2.8,0,5.6,0.1,8.3l16-0.5
		C24,261.2,24,258.6,24,256L24,256z"/>
	<path class="st3" d="M75,425.5c3.7,3.9,7.5,7.8,11.5,11.5l10.9-11.7c-3.7-3.5-7.3-7-10.7-10.7L75,425.5z"/>
	<path class="st3" d="M153.5,481.9c4.9,2.2,9.9,4.3,15,6.2l5.6-15c-4.7-1.8-9.4-3.7-14-5.8L153.5,481.9z"/>
	<path class="st3" d="M183.9,493.4c5.2,1.6,10.4,3,15.7,4.2l3.6-15.6c-4.9-1.1-9.8-2.5-14.6-3.9L183.9,493.4z"/>
	<path class="st3" d="M98.6,447.7c4.2,3.4,8.5,6.7,12.9,9.9l9.3-13c-4.1-2.9-8.1-6-12-9.2L98.6,447.7z"/>
	<path class="st3" d="M25.1,278.9l-15.9,1.6c0.5,5.4,1.2,10.8,2.1,16.1l15.8-2.6C26.3,289,25.6,284,25.1,278.9z"/>
	<path class="st3" d="M30,308.8l-15.6,3.6c1.2,5.3,2.6,10.5,4.2,15.7l15.3-4.6C32.5,318.7,31.2,313.8,30,308.8z"/>
	<path class="st3" d="M67.4,391.1l-13,9.3c3.2,4.4,6.5,8.7,9.9,12.8l12.4-10.1C73.4,399.3,70.4,395.3,67.4,391.1z"/>
	<path class="st3" d="M38.8,337.8l-15,5.7c1.9,5.1,4,10,6.2,15l14.6-6.6C42.6,347.3,40.6,342.6,38.8,337.8z"/>
	<path class="st3" d="M51.4,365.4L37.3,373c2.5,4.7,5.3,9.4,8.1,14l13.6-8.5C56.3,374.3,53.8,369.9,51.4,365.4z"/>
	<path class="st3" d="M438.4,88H456V72h-40c-4.4,0-8,3.6-8,8v40h16V96.1c88.4,92.7,84.8,239.5-7.9,327.9
		C373,465.1,315.6,488,256,488v16c136.9,0,248-111,248-247.9C504,193.8,480.6,133.8,438.4,88z"/>
	<path class="st3" d="M56,256c0,110.5,89.5,200,200,200s200-89.5,200-200S366.5,56,256,56C145.6,56.1,56.1,145.6,56,256z M256,72
		c101.6,0,184,82.4,184,184s-82.4,184-184,184S72,357.6,72,256C72.1,154.4,154.4,72.1,256,72z"/>
	<path class="st3" d="M256,424c92.8,0,168-75.2,168-168S348.8,88,256,88S88,163.2,88,256C88.1,348.7,163.3,423.9,256,424z M256,104
		c83.9,0,152,68.1,152,152s-68.1,152-152,152s-152-68.1-152-152C104.1,172.1,172.1,104.1,256,104z"/>
	<path class="st3" d="M149.7,278.7H185c1.4,0,2,0.7,2,2v13.8c0,1.4-0.7,2-2,2h-62.8c-1.4,0-2-0.7-2-2l-0.1-13.8c0-1,0.4-1.9,1.3-2.5
		l21.4-15.6c6.2-4.6,10.6-8.4,13.2-11.6c2.6-3.2,3.8-6.6,3.8-10.4c0-3.1-1-5.6-2.9-7.4c-1.9-1.8-4.7-2.8-8.4-2.8
		c-7.5,0-13.8,3.5-18.7,10.6c-0.9,1.1-1.8,1.2-2.9,0.4l-11-9.6c-1-0.9-1-1.8-0.2-2.9c8.7-11.4,20.3-17,34.8-17
		c8.5,0,15.5,2.4,21.1,7.2s8.3,11.3,8.3,19.6c0,6.3-1.8,12.2-5.3,17.6c-3.6,5.4-9.3,11.1-17.3,17L149.7,278.7z"/>
	<path class="st3" d="M266.8,266.8c1.4,0,2,0.7,2,2v12c0,1.4-0.7,2-2,2h-12v11.6c0,1.4-0.7,2-2,2h-14.4c-1.4,0-2-0.7-2-2v-11.6
		h-37.8c-1.4,0-2-0.7-2-2l-0.1-10.2c0-1,0.2-1.8,0.7-2.6l34.6-52.9c0.6-0.9,1.4-1.3,2.4-1.3h18.7c1.4,0,2,0.7,2,2v51H266.8z
		 M215.3,266.8h21v-32.2L215.3,266.8z"/>
	<path class="st3" d="M278.3,302.2l24-96l15.5,3.9l-24,96L278.3,302.2z"/>
	<path class="st3" d="M372,244.9c7.1,0,13.1,2.1,18,6.2c4.9,4.1,7.3,10.3,7.3,18.5c0,8.9-3.1,15.9-9.3,21.1
		c-6.2,5.2-13.7,7.8-22.5,7.8c-10.9,0-19.5-4-25.9-12.1s-9.5-18.4-9.5-30.8c0-13,3.3-23.5,10-31.6c6.6-8.1,15.5-12.1,26.6-12.1
		c11.5,0,20.7,4.1,27.5,12.2c1,1,0.9,1.9-0.2,2.9l-11.4,9.8c-1,0.9-2,0.8-2.9-0.4c-3-4-7.3-6-13-6c-5.6,0-9.8,2.2-12.7,6.6
		c-2.8,4.4-4.3,10.4-4.4,17.9C354.9,248.2,362.3,244.9,372,244.9z M357.3,277.2c2.3,1.8,5.2,2.8,8.6,2.8s6.3-0.9,8.6-2.8
		c2.3-1.8,3.5-4.4,3.5-7.6c0-3.3-1.1-5.8-3.3-7.6c-2.2-1.8-5.1-2.6-8.6-2.6c-3.6,0-6.6,0.9-8.9,2.7c-2.3,1.8-3.5,4.3-3.5,7.5
		C353.8,272.8,354.9,275.3,357.3,277.2z"/>
</g>
</svg>
