<?xml version="1.0" encoding="utf-8"?>
<!-- Generator: Adobe Illustrator 25.3.1, SVG Export Plug-In . SVG Version: 6.00 Build 0)  -->
<svg version="1.1" id="Camada_1" xmlns="http://www.w3.org/2000/svg" xmlns:xlink="http://www.w3.org/1999/xlink" x="0px" y="0px"
	 viewBox="0 0 1000 1000" style="enable-background:new 0 0 1000 1000;" xml:space="preserve">
<style type="text/css">
	.st0{opacity:0.5;}
	.st1{opacity:0.4;}
	.st2{fill:none;stroke:url(#SVGID_1_);stroke-miterlimit:10;}
	.st3{fill:none;stroke:url(#SVGID_2_);stroke-miterlimit:10;}
	.st4{fill:none;stroke:url(#SVGID_3_);stroke-miterlimit:10;}
	.st5{fill:none;stroke:url(#SVGID_4_);stroke-miterlimit:10;}
	.st6{fill:none;stroke:url(#SVGID_5_);stroke-miterlimit:10;}
	.st7{fill:none;stroke:url(#SVGID_6_);stroke-miterlimit:10;}
	.st8{fill:none;stroke:url(#SVGID_7_);stroke-miterlimit:10;}
	.st9{fill:none;stroke:url(#SVGID_8_);stroke-miterlimit:10;}
	.st10{fill:none;stroke:url(#SVGID_9_);stroke-miterlimit:10;}
	.st11{fill:none;stroke:url(#SVGID_10_);stroke-miterlimit:10;}
	.st12{fill:none;stroke:url(#SVGID_11_);stroke-miterlimit:10;}
	.st13{fill:none;stroke:url(#SVGID_12_);stroke-miterlimit:10;}
	.st14{fill:none;stroke:url(#SVGID_13_);stroke-miterlimit:10;}
	.st15{fill:none;stroke:url(#SVGID_14_);stroke-miterlimit:10;}
	.st16{fill:none;stroke:url(#SVGID_15_);stroke-miterlimit:10;}
	.st17{fill:none;stroke:url(#SVGID_16_);stroke-miterlimit:10;}
	.st18{fill:none;stroke:url(#SVGID_17_);stroke-miterlimit:10;}
	.st19{fill:none;stroke:url(#SVGID_18_);stroke-miterlimit:10;}
	.st20{fill:none;stroke:url(#SVGID_19_);stroke-miterlimit:10;}
	.st21{fill:none;stroke:url(#SVGID_20_);stroke-miterlimit:10;}
	.st22{fill:none;stroke:url(#SVGID_21_);stroke-miterlimit:10;}
	.st23{fill:none;stroke:url(#SVGID_22_);stroke-miterlimit:10;}
	.st24{fill:none;stroke:url(#SVGID_23_);stroke-miterlimit:10;}
	.st25{fill:none;stroke:url(#SVGID_24_);stroke-miterlimit:10;}
	.st26{fill:none;stroke:url(#SVGID_25_);stroke-miterlimit:10;}
	.st27{fill:none;stroke:url(#SVGID_26_);stroke-miterlimit:10;}
	.st28{fill:none;stroke:url(#SVGID_27_);stroke-miterlimit:10;}
	.st29{fill:none;stroke:url(#SVGID_28_);stroke-miterlimit:10;}
	.st30{fill:none;stroke:url(#SVGID_29_);stroke-miterlimit:10;}
	.st31{fill:none;stroke:url(#SVGID_30_);stroke-miterlimit:10;}
	.st32{fill:#E97D90;stroke:#E97D90;stroke-miterlimit:10;}
	.st33{fill:#8976F5;stroke:#8976F5;stroke-miterlimit:10;}
	.st34{fill:#68DCF1;stroke:#68DCF1;stroke-miterlimit:10;}
	.st35{fill:#D59FFF;stroke:#D59FFF;stroke-width:2;stroke-linecap:round;stroke-miterlimit:10;}
</style>
<g class="st0">
	<g class="st1">
		<g>
			
				<radialGradient id="SVGID_1_" cx="329.5529" cy="577.6108" r="140.1116" gradientTransform="matrix(0.5919 -0.8696 0.8447 0.4984 -270.3641 662.0472)" gradientUnits="userSpaceOnUse">
				<stop  offset="0.2402" style="stop-color:#E97D90"/>
				<stop  offset="1" style="stop-color:#E97D90;stop-opacity:0.3"/>
			</radialGradient>
			<line class="st2" x1="245.2" y1="564.6" x2="580" y2="762.1"/>
			
				<radialGradient id="SVGID_2_" cx="355.7628" cy="577.6108" r="140.1116" gradientTransform="matrix(0.5919 -0.8696 0.8447 0.4984 -270.3641 662.0472)" gradientUnits="userSpaceOnUse">
				<stop  offset="0.2402" style="stop-color:#E97D90"/>
				<stop  offset="1" style="stop-color:#E97D90;stop-opacity:0.3"/>
			</radialGradient>
			<line class="st3" x1="260.7" y1="541.8" x2="595.5" y2="739.3"/>
			
				<radialGradient id="SVGID_3_" cx="303.3429" cy="577.6108" r="140.1116" gradientTransform="matrix(0.5919 -0.8696 0.8447 0.4984 -270.3641 662.0472)" gradientUnits="userSpaceOnUse">
				<stop  offset="0.2402" style="stop-color:#E97D90"/>
				<stop  offset="1" style="stop-color:#E97D90;stop-opacity:0.3"/>
			</radialGradient>
			<line class="st4" x1="229.7" y1="587.4" x2="564.4" y2="784.9"/>
			
				<radialGradient id="SVGID_4_" cx="382.3222" cy="577.6108" r="140.1116" gradientTransform="matrix(0.5919 -0.8696 0.8447 0.4984 -270.3641 662.0472)" gradientUnits="userSpaceOnUse">
				<stop  offset="0.2402" style="stop-color:#E97D90"/>
				<stop  offset="1" style="stop-color:#E97D90;stop-opacity:0.3"/>
			</radialGradient>
			<line class="st5" x1="276.5" y1="518.7" x2="611.2" y2="716.2"/>
			
				<radialGradient id="SVGID_5_" cx="408.1826" cy="577.6108" r="140.1116" gradientTransform="matrix(0.5919 -0.8696 0.8447 0.4984 -270.3641 662.0472)" gradientUnits="userSpaceOnUse">
				<stop  offset="0.2402" style="stop-color:#E97D90"/>
				<stop  offset="1" style="stop-color:#E97D90;stop-opacity:0.3"/>
			</radialGradient>
			<line class="st6" x1="291.8" y1="496.2" x2="626.5" y2="693.7"/>
			
				<radialGradient id="SVGID_6_" cx="458.0459" cy="577.6108" r="140.1116" gradientTransform="matrix(0.5919 -0.8696 0.8447 0.4984 -270.3641 662.0472)" gradientUnits="userSpaceOnUse">
				<stop  offset="0.2402" style="stop-color:#E97D90"/>
				<stop  offset="1" style="stop-color:#E97D90;stop-opacity:0.3"/>
			</radialGradient>
			<line class="st7" x1="321.3" y1="452.8" x2="656" y2="650.3"/>
			
				<radialGradient id="SVGID_7_" cx="484.2558" cy="577.6108" r="140.1116" gradientTransform="matrix(0.5919 -0.8696 0.8447 0.4984 -270.3641 662.0472)" gradientUnits="userSpaceOnUse">
				<stop  offset="0.2402" style="stop-color:#E97D90"/>
				<stop  offset="1" style="stop-color:#E97D90;stop-opacity:0.3"/>
			</radialGradient>
			<line class="st8" x1="336.8" y1="430" x2="671.5" y2="627.6"/>
			
				<radialGradient id="SVGID_8_" cx="431.836" cy="577.6108" r="140.1116" gradientTransform="matrix(0.5919 -0.8696 0.8447 0.4984 -270.3641 662.0472)" gradientUnits="userSpaceOnUse">
				<stop  offset="0.2402" style="stop-color:#E97D90"/>
				<stop  offset="1" style="stop-color:#E97D90;stop-opacity:0.3"/>
			</radialGradient>
			<line class="st9" x1="305.8" y1="475.6" x2="640.5" y2="673.1"/>
			
				<radialGradient id="SVGID_9_" cx="510.8152" cy="577.6108" r="140.1116" gradientTransform="matrix(0.5919 -0.8696 0.8447 0.4984 -270.3641 662.0472)" gradientUnits="userSpaceOnUse">
				<stop  offset="0.2402" style="stop-color:#E97D90"/>
				<stop  offset="1" style="stop-color:#E97D90;stop-opacity:0.3"/>
			</radialGradient>
			<line class="st10" x1="352.5" y1="407" x2="687.3" y2="604.5"/>
			
				<radialGradient id="SVGID_10_" cx="536.6757" cy="577.6108" r="140.1116" gradientTransform="matrix(0.5919 -0.8696 0.8447 0.4984 -270.3641 662.0472)" gradientUnits="userSpaceOnUse">
				<stop  offset="0.2402" style="stop-color:#E97D90"/>
				<stop  offset="1" style="stop-color:#E97D90;stop-opacity:0.3"/>
			</radialGradient>
			<line class="st11" x1="367.8" y1="384.5" x2="702.6" y2="582"/>
			
				<radialGradient id="SVGID_11_" cx="586.6493" cy="577.6108" r="140.1116" gradientTransform="matrix(0.5919 -0.8696 0.8447 0.4984 -270.3641 662.0472)" gradientUnits="userSpaceOnUse">
				<stop  offset="0.2402" style="stop-color:#E97D90"/>
				<stop  offset="1" style="stop-color:#E97D90;stop-opacity:0.3"/>
			</radialGradient>
			<line class="st12" x1="397.4" y1="341" x2="732.1" y2="538.5"/>
			
				<radialGradient id="SVGID_12_" cx="612.8593" cy="577.6108" r="140.1116" gradientTransform="matrix(0.5919 -0.8696 0.8447 0.4984 -270.3641 662.0472)" gradientUnits="userSpaceOnUse">
				<stop  offset="0.2402" style="stop-color:#E97D90"/>
				<stop  offset="1" style="stop-color:#E97D90;stop-opacity:0.3"/>
			</radialGradient>
			<line class="st13" x1="412.9" y1="318.2" x2="747.7" y2="515.7"/>
			
				<radialGradient id="SVGID_13_" cx="560.4394" cy="577.6108" r="140.1116" gradientTransform="matrix(0.5919 -0.8696 0.8447 0.4984 -270.3641 662.0472)" gradientUnits="userSpaceOnUse">
				<stop  offset="0.2402" style="stop-color:#E97D90"/>
				<stop  offset="1" style="stop-color:#E97D90;stop-opacity:0.3"/>
			</radialGradient>
			<line class="st14" x1="381.9" y1="363.8" x2="716.6" y2="561.3"/>
			
				<radialGradient id="SVGID_14_" cx="639.4186" cy="577.6108" r="140.1116" gradientTransform="matrix(0.5919 -0.8696 0.8447 0.4984 -270.3641 662.0472)" gradientUnits="userSpaceOnUse">
				<stop  offset="0.2402" style="stop-color:#E97D90"/>
				<stop  offset="1" style="stop-color:#E97D90;stop-opacity:0.3"/>
			</radialGradient>
			<line class="st15" x1="428.6" y1="295.1" x2="763.4" y2="492.6"/>
			
				<radialGradient id="SVGID_15_" cx="665.2791" cy="577.6108" r="140.1116" gradientTransform="matrix(0.5919 -0.8696 0.8447 0.4984 -270.3641 662.0472)" gradientUnits="userSpaceOnUse">
				<stop  offset="0.2402" style="stop-color:#E97D90"/>
				<stop  offset="1" style="stop-color:#E97D90;stop-opacity:0.3"/>
			</radialGradient>
			<line class="st16" x1="444" y1="272.6" x2="778.7" y2="470.1"/>
		</g>
		<g>
			
				<radialGradient id="SVGID_16_" cx="484.3111" cy="422.8527" r="140.1116" gradientTransform="matrix(0.5919 -0.8696 0.8447 0.4984 -270.3641 662.0472)" gradientUnits="userSpaceOnUse">
				<stop  offset="0.2402" style="stop-color:#E97D90"/>
				<stop  offset="1" style="stop-color:#E97D90;stop-opacity:0.3"/>
			</radialGradient>
			<line class="st17" x1="490.8" y1="279.3" x2="256.2" y2="623.9"/>
			
				<radialGradient id="SVGID_17_" cx="484.311" cy="449.0626" r="140.1116" gradientTransform="matrix(0.5919 -0.8696 0.8447 0.4984 -270.3641 662.0472)" gradientUnits="userSpaceOnUse">
				<stop  offset="0.2402" style="stop-color:#E97D90"/>
				<stop  offset="1" style="stop-color:#E97D90;stop-opacity:0.3"/>
			</radialGradient>
			<line class="st18" x1="512.9" y1="292.4" x2="278.3" y2="637"/>
			
				<radialGradient id="SVGID_18_" cx="484.3111" cy="396.6427" r="140.1116" gradientTransform="matrix(0.5919 -0.8696 0.8447 0.4984 -270.3641 662.0472)" gradientUnits="userSpaceOnUse">
				<stop  offset="0.2402" style="stop-color:#E97D90"/>
				<stop  offset="1" style="stop-color:#E97D90;stop-opacity:0.3"/>
			</radialGradient>
			<line class="st19" x1="468.6" y1="266.3" x2="234.1" y2="610.9"/>
			
				<radialGradient id="SVGID_19_" cx="484.311" cy="475.622" r="140.1116" gradientTransform="matrix(0.5919 -0.8696 0.8447 0.4984 -270.3641 662.0472)" gradientUnits="userSpaceOnUse">
				<stop  offset="0.2402" style="stop-color:#E97D90"/>
				<stop  offset="1" style="stop-color:#E97D90;stop-opacity:0.3"/>
			</radialGradient>
			<line class="st20" x1="535.3" y1="305.6" x2="300.8" y2="650.2"/>
			
				<radialGradient id="SVGID_20_" cx="484.311" cy="501.4825" r="140.1116" gradientTransform="matrix(0.5919 -0.8696 0.8447 0.4984 -270.3641 662.0472)" gradientUnits="userSpaceOnUse">
				<stop  offset="0.2402" style="stop-color:#E97D90"/>
				<stop  offset="1" style="stop-color:#E97D90;stop-opacity:0.3"/>
			</radialGradient>
			<line class="st21" x1="557.2" y1="318.5" x2="322.6" y2="663.1"/>
			
				<radialGradient id="SVGID_21_" cx="484.311" cy="551.3457" r="140.1116" gradientTransform="matrix(0.5919 -0.8696 0.8447 0.4984 -270.3641 662.0472)" gradientUnits="userSpaceOnUse">
				<stop  offset="0.2402" style="stop-color:#E97D90"/>
				<stop  offset="1" style="stop-color:#E97D90;stop-opacity:0.3"/>
			</radialGradient>
			<line class="st22" x1="599.3" y1="343.4" x2="364.7" y2="688"/>
			
				<radialGradient id="SVGID_22_" cx="484.311" cy="577.5557" r="140.1116" gradientTransform="matrix(0.5919 -0.8696 0.8447 0.4984 -270.3641 662.0472)" gradientUnits="userSpaceOnUse">
				<stop  offset="0.2402" style="stop-color:#E97D90"/>
				<stop  offset="1" style="stop-color:#E97D90;stop-opacity:0.3"/>
			</radialGradient>
			<line class="st23" x1="621.4" y1="356.4" x2="386.9" y2="701"/>
			
				<radialGradient id="SVGID_23_" cx="484.311" cy="525.1358" r="140.1116" gradientTransform="matrix(0.5919 -0.8696 0.8447 0.4984 -270.3641 662.0472)" gradientUnits="userSpaceOnUse">
				<stop  offset="0.2402" style="stop-color:#E97D90"/>
				<stop  offset="1" style="stop-color:#E97D90;stop-opacity:0.3"/>
			</radialGradient>
			<line class="st24" x1="577.2" y1="330.3" x2="342.6" y2="674.9"/>
			
				<radialGradient id="SVGID_24_" cx="484.311" cy="604.1151" r="140.1116" gradientTransform="matrix(0.5919 -0.8696 0.8447 0.4984 -270.3641 662.0472)" gradientUnits="userSpaceOnUse">
				<stop  offset="0.2402" style="stop-color:#E97D90"/>
				<stop  offset="1" style="stop-color:#E97D90;stop-opacity:0.3"/>
			</radialGradient>
			<line class="st25" x1="643.9" y1="369.7" x2="409.3" y2="714.3"/>
			
				<radialGradient id="SVGID_25_" cx="484.311" cy="629.9755" r="140.1116" gradientTransform="matrix(0.5919 -0.8696 0.8447 0.4984 -270.3641 662.0472)" gradientUnits="userSpaceOnUse">
				<stop  offset="0.2402" style="stop-color:#E97D90"/>
				<stop  offset="1" style="stop-color:#E97D90;stop-opacity:0.3"/>
			</radialGradient>
			<line class="st26" x1="665.7" y1="382.5" x2="431.1" y2="727.2"/>
			
				<radialGradient id="SVGID_26_" cx="484.311" cy="679.9491" r="140.1116" gradientTransform="matrix(0.5919 -0.8696 0.8447 0.4984 -270.3641 662.0472)" gradientUnits="userSpaceOnUse">
				<stop  offset="0.2402" style="stop-color:#E97D90"/>
				<stop  offset="1" style="stop-color:#E97D90;stop-opacity:0.3"/>
			</radialGradient>
			<line class="st27" x1="707.9" y1="407.4" x2="473.4" y2="752.1"/>
			
				<radialGradient id="SVGID_27_" cx="484.311" cy="706.1591" r="140.1116" gradientTransform="matrix(0.5919 -0.8696 0.8447 0.4984 -270.3641 662.0472)" gradientUnits="userSpaceOnUse">
				<stop  offset="0.2402" style="stop-color:#E97D90"/>
				<stop  offset="1" style="stop-color:#E97D90;stop-opacity:0.3"/>
			</radialGradient>
			<line class="st28" x1="730.1" y1="420.5" x2="495.5" y2="765.1"/>
			
				<radialGradient id="SVGID_28_" cx="484.311" cy="653.7392" r="140.1116" gradientTransform="matrix(0.5919 -0.8696 0.8447 0.4984 -270.3641 662.0472)" gradientUnits="userSpaceOnUse">
				<stop  offset="0.2402" style="stop-color:#E97D90"/>
				<stop  offset="1" style="stop-color:#E97D90;stop-opacity:0.3"/>
			</radialGradient>
			<line class="st29" x1="685.8" y1="394.4" x2="451.2" y2="739"/>
			
				<radialGradient id="SVGID_29_" cx="484.3109" cy="732.7184" r="140.1116" gradientTransform="matrix(0.5919 -0.8696 0.8447 0.4984 -270.3641 662.0472)" gradientUnits="userSpaceOnUse">
				<stop  offset="0.2402" style="stop-color:#E97D90"/>
				<stop  offset="1" style="stop-color:#E97D90;stop-opacity:0.3"/>
			</radialGradient>
			<line class="st30" x1="752.5" y1="433.7" x2="517.9" y2="778.4"/>
			
				<radialGradient id="SVGID_30_" cx="484.3109" cy="758.5789" r="140.1116" gradientTransform="matrix(0.5919 -0.8696 0.8447 0.4984 -270.3641 662.0472)" gradientUnits="userSpaceOnUse">
				<stop  offset="0.2402" style="stop-color:#E97D90"/>
				<stop  offset="1" style="stop-color:#E97D90;stop-opacity:0.3"/>
			</radialGradient>
			<line class="st31" x1="774.3" y1="446.6" x2="539.8" y2="791.3"/>
		</g>
	</g>
	<path class="st32" d="M435,431L205.4,113.3c-1.3-1.8-4.2-1.3-4.8,0.8l-23,78.1c-0.3,1,0,2,0.7,2.8l252.5,239.7
		C433.3,436.9,437,433.7,435,431z"/>
	<path class="st33" d="M567.9,402.2c2.9-21,10.6-50.5,34.2-71.3c18.4-16.1,29.5-12.2,43.9-28.5c25.9-29.2,6-59.9,28.8-82.2
		c22.9-22.4,53.5-2,69.2-22.7c17.9-23.5-13.4-60.5,6.8-91.9c8.1-12.6,20.9-18.9,30.3-22.2"/>
	<path class="st34" d="M675.4,126.8h-11.5c-2.1,0-3.8-1.7-3.8-3.8v-12.5c0-2.1,1.7-3.8,3.8-3.8h11.5c2.1,0,3.8,1.7,3.8,3.8V123
		C679.2,125.1,677.5,126.8,675.4,126.8z"/>
	<path class="st34" d="M700.3,94.8h-9.2c-1.6,0-2.9-1.3-2.9-2.9v-9.2c0-1.6,1.3-2.9,2.9-2.9h9.2c1.6,0,2.9,1.3,2.9,2.9v9.2
		C703.2,93.4,701.9,94.8,700.3,94.8z"/>
	<path class="st32" d="M367.3,565.9l-172.8,96.5c-0.8,0.4-0.7,1.5,0.1,1.8l106.2,38.5c0.5,0.2,1,0,1.3-0.5l66.6-135.1
		C369.1,566.4,368.2,565.4,367.3,565.9z"/>
	<path class="st33" d="M461.1,618c29.1,47.2,28.3,77.2,21.7,96.1c-8.3,23.8-25.3,29.1-25.3,50.9c0,27.3,26.5,36.2,31,67.5
		c2.9,20.3-5,38.4-12.3,50.5"/>
	<line class="st35" x1="66.2" y1="159.8" x2="417.2" y2="435.2"/>
	<line class="st35" x1="549.8" y1="551" x2="800.2" y2="920.2"/>
	<polygon class="st34" points="567.9,540.4 828.2,890.8 933.8,883 	"/>
</g>
<image style="display:none;overflow:visible;" width="500" height="500" xlink:href="cake_img_130122.png"  transform="matrix(1.19 0 0 1.19 232 217)">
</image>
<g>
</g>
<g>
</g>
<g>
</g>
<g>
</g>
<g>
</g>
<g>
</g>
<g>
</g>
<g>
</g>
<g>
</g>
<g>
</g>
<g>
</g>
<g>
</g>
<g>
</g>
<g>
</g>
<g>
</g>
</svg>
