<svg xmlns="http://www.w3.org/2000/svg" version="1.1" xmlns:xlink="http://www.w3.org/1999/xlink" xmlns:svgjs="http://svgjs.com/svgjs" width="512" height="512" x="0" y="0" viewBox="0 0 512 512" style="enable-background:new 0 0 512 512" xml:space="preserve">
    <g>
        <g xmlns="http://www.w3.org/2000/svg">
            <g>
                <path d="m243.346 492.489v-162.184h-28.493l-35.247-27.141-15.507 5.975-7.689-1.76-54.933 21.297c-15.941 6.561-37.287 27.203-37.287 57.835v106.203c0 6.862 5.563 12.426 12.426 12.426h179.378c-6.956-.002-12.648-5.694-12.648-12.651z" fill="#8976F5" data-original="#dd636e"></path>
                <path d="m96.422 493.712v-120.922c0-25.533 14.831-44.118 29.001-53.399l-23.947 9.284c-15.941 6.561-37.287 27.203-37.287 57.835v106.203c0 6.862 5.563 12.426 12.426 12.426h27.347c-4.433-1.899-7.54-6.299-7.54-11.427z" fill="#6356B0" data-original="#da4a54"></path>
                <path d="m282.875 291.364c-2.642-1.021-4.398-3.564-4.406-6.412l-.021-26.659c-10.681 6.989-23.429 11.069-37.119 11.069-15.096 0-28.345-4.185-39.148-11.172v26.721c0 5.276-4.706 6.547-6.713 7.325l-1.482.575-1.663 5.453-15.048 5.798.233 1.488 37.344 28.756h28.493v-24.476c0-6.957 5.692-9.648 12.648-9.648l49.355-.042z" fill="#FFCEBE" data-original="#ffcebe"></path>
                <path d="m240.932 269.355c-14.93-.073-28.043-4.24-38.751-11.166v26.721c0 5.276-4.706 6.547-6.713 7.325l-1.482.575-1.663 5.453-15.048 5.798.233 1.488 37.344 28.756h26.08z" fill="#FFB1A0" data-original="#ffb1a0"></path>
                <path d="m334.493 162.592h-3.644l-23.5 7.546v35l1.929 2.007c17.464 2.047 31.996-10.703 31.996-26.302 0-6.748-2.52-13.26-6.781-18.251z" fill="#FFCEBE" data-original="#ffcebe"></path>
                <path d="m325.749 164.229-18.4 5.909v35l1.929 2.007c5.992.702 11.638-.338 16.471-2.637z" fill="#FFB1A0" data-original="#ffb1a0"></path>
                <path d="m146.198 162.592h3.644l23.5 7.546v35l-1.929 2.007c-17.464 2.047-31.996-10.703-31.996-26.302 0-6.748 2.521-13.26 6.781-18.251z" fill="#FFCEBE" data-original="#ffcebe"></path>
                <path d="m157.817 180.843c0-5.123 1.456-10.109 4.021-14.399l-11.996-3.852h-3.644c-4.26 4.991-6.781 11.504-6.781 18.251 0 15.6 14.533 28.349 31.996 26.302l1.929-2.007v-.63c-9.253-4.401-15.525-13.418-15.525-23.665z" fill="#FFB1A0" data-original="#ffb1a0"></path>
                <path d="m298.049 162.499c-28.606-16.053-57.704-16.67-57.704-16.67s-29.097.617-57.704 16.67c-4.01 2.25-7.777 3.746-11.273 4.604v38.266c0 35.536 27.844 67.992 69.961 67.992 37.492 0 67.993-30.502 67.993-67.992v-38.266c-3.496-.858-7.262-2.353-11.273-4.604z" fill="#FFDECF" data-original="#ffdecf"></path>
                <path d="m207.449 205.37v-53.46c-7.8 2.432-16.322 5.828-24.808 10.589-4.01 2.25-7.776 3.746-11.273 4.604v38.266c0 35.536 27.844 67.992 69.961 67.992 6.019 0 11.854-.795 17.416-2.271-31.481-7.958-51.296-35.743-51.296-65.72z" fill="#FFCEBE" data-original="#ffcebe"></path>
                <path d="m197.358 354.229c2.33 2.666 6.36 2.992 9.089.736l19.42-16.061c2.852-2.359 3.179-6.612.722-9.379l-32.603-36.715-37.577 14.568z" fill="#68DCF1" data-original="#ffe07d"></path>
                <path d="m435.655 297.181h-57.411l-5.562 5.874h-56.5l-5.778-5.874h-24.626c-3.982 2.252-6.672 6.359-6.672 11.042v185.873c0 4.683 2.69 8.79 6.673 11.042h149.876c6.956 0 12.648-5.692 12.648-12.649v-182.66c0-6.957-5.692-12.648-12.648-12.648z" fill="#FBC481" data-original="#fbc481"></path>
                <path d="m282.846 492.489v-182.66c0-6.957 5.692-12.648 12.648-12.648h-42.5c-6.956 0-12.648 5.691-12.648 12.648v182.66c0 6.957 5.692 12.649 12.648 12.649h42.5c-6.956 0-12.648-5.692-12.648-12.649z" fill="#DD9973" data-original="#dd9973"></path>
                <path d="m310.405 297.18v78.83c0 4.716 5.236 7.548 9.183 4.965l21.488-14.062c1.974-1.292 4.525-1.292 6.498 0l21.488 14.062c3.946 2.582 9.183-.249 9.183-4.965v-78.83z" fill="#E97D90" data-original="#d6865f"></path>
            <g>
                <path d="m344.325 297.18h-33.92v78.83c0 4.716 5.236 7.548 9.183 4.965l21.488-14.062c.987-.646 2.118-.969 3.249-.969z" fill="#A44959" data-original="#b97359"></path>
            </g>
            <path d="m335.219 138.29s-31.222-44.382-94.914-44.382-94.914 44.382-94.914 44.382c-8.64 21.806 7.775 45.743 37.234 29.211 28.594-16.046 57.68-16.663 57.68-16.663s29.085.617 57.68 16.663c29.459 16.532 45.874-7.405 37.234-29.211z" fill="#68DCF1" data-original="#ffe07d"></path>
            <g>
                <path d="m190.552 116.125s5.609-7.967 16.898-17.999c-41.59 11.078-62.058 40.164-62.058 40.164-8.64 21.806 7.775 45.743 37.234 29.211 6.695-3.757 13.413-6.66 19.782-8.915-13.574-7.028-18.676-25.249-11.856-42.461z" fill="#52BBCE" data-original="#ffd064"></path>
            </g>
            <path d="m216.155 32.94c-40.264 7.434-70.764 42.721-70.764 85.136v20.214s15.32-13.902 46.344-22.248c1.329-35.63 10.819-66.257 24.42-83.102z" fill="#8976F5" data-original="#dd636e"></path>
            <path d="m264.454 32.94c13.602 16.845 23.091 47.472 24.42 83.102 31.024 8.346 46.344 22.248 46.344 22.248v-20.214c.001-42.415-30.5-77.702-70.764-85.136z" fill="#8976F5" data-original="#dd636e"></path>
            <path d="m231.973 34.493h16.663c3.208 0 6.374.18 9.491.52v-11.808c0-8.249-6.749-14.998-14.998-14.998h-5.649c-8.249 0-14.998 6.749-14.998 14.998v11.807c3.117-.339 6.283-.519 9.491-.519z" fill="#68DCF1" data-original="#ffe07d"></path>
            <g>
                <path d="m240.305 23.205c0-6.083 3.676-11.34 8.912-13.687-1.864-.835-3.921-1.311-6.087-1.311h-5.649c-8.249 0-14.998 6.749-14.998 14.998v11.808c3.117-.34 6.283-.52 9.491-.52h8.331z" fill="#52BBCE" data-original="#ffd064"></path>
            </g>
            <path d="m231.973 31.494c-5.51 0-10.897.521-16.121 1.504-14.606 16.585-24.631 47.563-25.315 83.362 13.517-3.746 30.087-6.459 49.767-6.459s36.251 2.714 49.768 6.459c-.684-35.799-10.709-66.778-25.315-83.362-5.224-.984-10.611-1.505-16.121-1.505h-16.663z" fill="#6356B0" data-original="#da4a54"></path>
            <g>
                <path d="m240.196 31.494h-8.223c-5.51 0-10.897.521-16.121 1.504-14.606 16.585-24.631 47.564-25.315 83.363 7.735-2.144 16.476-3.946 26.221-5.098 1.805-32.929 10.647-61.587 23.438-79.769z" fill="#5445AC" data-original="#df4854"></path>
            </g>
            </g>
            <g>
            <path d="m227.724 85.162h24.75c4.143 0 7.5-3.358 7.5-7.5s-3.357-7.5-7.5-7.5h-24.75c-4.143 0-7.5 3.358-7.5 7.5s3.358 7.5 7.5 7.5z" fill="rgb(35, 41, 56)" data-original="#000000"></path>
            <path d="m319.886 465.771h-48.452c-4.143 0-7.5 3.358-7.5 7.5s3.357 7.5 7.5 7.5h48.452c4.143 0 7.5-3.358 7.5-7.5s-3.357-7.5-7.5-7.5z" fill="rgb(35, 41, 56)" data-original="#000000"></path>
            <path d="m319.886 440.884h-48.452c-4.143 0-7.5 3.358-7.5 7.5s3.357 7.5 7.5 7.5h48.452c4.143 0 7.5-3.358 7.5-7.5s-3.357-7.5-7.5-7.5z" fill="rgb(35, 41, 56)" data-original="#000000"></path>
            <path d="m319.886 415.997h-48.452c-4.143 0-7.5 3.358-7.5 7.5s3.357 7.5 7.5 7.5h48.452c4.143 0 7.5-3.358 7.5-7.5s-3.357-7.5-7.5-7.5z" fill="rgb(35, 41, 56)" data-original="#000000"></path>
            <path d="m76.369 512h252.136c4.143 0 7.5-3.358 7.5-7.5s-3.357-7.5-7.5-7.5h-75.757c-2.791 0-5.148-2.358-5.148-5.149v-182.661c0-2.79 2.357-5.147 5.148-5.147h49.911v71.329c0 10.724 11.929 17.042 20.789 11.241l20.63-13.5 20.63 13.5c8.921 5.84 20.79-.577 20.79-11.24v-18.943c0-4.142-3.357-7.5-7.5-7.5s-7.5 3.358-7.5 7.5v16.045l-19.064-12.475c-4.47-2.924-10.244-2.923-14.712 0l-19.063 12.475v-68.432h52.839v17.386c0 4.142 3.357 7.5 7.5 7.5s7.5-3.358 7.5-7.5v-17.386h49.911c2.791 0 5.148 2.357 5.148 5.147v182.661c0 2.791-2.357 5.149-5.148 5.149h-71.904c-4.143 0-7.5 3.358-7.5 7.5s3.357 7.5 7.5 7.5h71.904c11.11 0 20.148-9.039 20.148-20.149v-182.661c0-11.109-9.038-20.147-20.148-20.147-3.553 0-130.989 0-136.359 0l-13.328-5.162-.017-18.306c16.33-12.008 27.657-30.42 30.272-51.502 26.482-2.308 41.451-30.351 26.896-53.046 2.677-7.459 2.66-16.229-.321-24.677v-18.936c0-45.752-32.9-84.411-77.124-92.578v-2.333c.001-12.408-10.094-22.503-22.503-22.503h-5.651c-12.409 0-22.505 10.095-22.505 22.504v2.333c-44.106 8.168-77.124 46.692-77.124 92.578v18.936c-3.042 8.622-2.984 17.573-.139 25.13-9.743 14.587-6.832 32.583 5.523 43.574 5.852 5.206 13.301 8.33 21.185 9.017 2.576 20.975 13.695 39.394 30.221 51.417l-.002 18.362c-.131.062-95.777 37.14-95.912 37.192-.048.019-.096.038-.144.057-20.196 8.312-41.934 32.126-41.934 64.771v106.203c0 10.988 8.938 19.926 19.926 19.926zm176.379-222.958c-11.11 0-20.148 9.038-20.148 20.148v15.523c-.675-.881 1.454 1.559-27.098-30.594 2.608-2.587 3.934-5.875 3.934-9.847v-10.308c9.367 3.966 20.406 6.26 31.648 6.26 10.513 0 20.528-2.166 29.63-6.065l.009 10.176c.005 1.64.279 3.226.792 4.708h-18.767zm63.829-90.154v-19.005c7.439-.128 12.839-2.815 16.168-5.184 3.42 12.021-4.917 22.253-16.168 24.189zm10.976-81.472v5.867c-9.638-5.508-18.246-9.492-30.353-13.278-1.109-24.359-6.403-46.797-14.892-64.073 26.724 12.714 45.245 39.973 45.245 71.484zm-90.279-102.416h5.651c3.729 0 7.504 2.682 7.504 8.318-1.582-.034-19.096-.033-20.66 0 0-5.488 3.637-8.318 7.505-8.318zm-17.661 24.231c2.377-.402 7.496-.935 12.151-.935h16.67c4.616 0 9.785.54 12.151.935 11.545 14.477 19.406 39.215 21.361 66.78-26.537-5.688-56.986-5.725-83.694 0 1.956-27.564 9.818-52.303 21.361-66.78zm-66.968 78.185c0-31.51 18.521-58.769 45.245-71.484-8.488 17.277-13.782 39.715-14.892 64.073-11.56 3.615-21.307 8.015-30.353 13.278zm10.978 81.472c-11.825-2.031-19.649-13.006-16.089-24.067 4.723 3.37 10.332 4.958 16.089 5.057zm-10.758-39.983c-2.73-4.394-3.289-10.672-1.358-16.783 22.881-17.766 59.062-25.384 88.593-25.384 29.398 0 65.312 7.304 88.593 25.385 1.892 5.989 1.388 12.136-1.202 16.515-5.389 9.105-16.822 6.846-26.016 1.684h-.001c-22.714-12.746-51.283-18.502-65.09-17.429-18.8 1.462-39.993 7.516-57.659 17.429-9.076 5.092-20.357 7.403-25.86-1.417zm25.758 45.827v-27.782c2.479-.968 5.111-2.239 7.442-3.548 16.644-9.338 38.407-15.098 54.041-15.707 2.324.085 28.45 1.355 54.027 15.707 2.589 1.453 5.123 2.637 7.443 3.543v27.787c0 33.495-27.32 60.454-60.426 60.49-.022 0-.045.001-.067.001-.021 0-.041-.001-.062-.001-38.259-.036-62.398-30-62.398-60.49zm12.97 96.317 28.48 32.073-17.932 14.829-33.288-38.086zm-120.15 84.823c0-27.441 19.454-45.438 32.574-50.871l49.957-19.368 37.49 42.894c5.045 5.773 13.618 6.457 19.516 1.58l19.422-16.062c.83-.687 1.558-1.46 2.197-2.292v150.098c0 1.492.208 3.414.667 5.149h-99.972v-101.266c0-4.142-3.357-7.5-7.5-7.5s-7.5 3.358-7.5 7.5v101.266h-41.925c-2.716 0-4.926-2.209-4.926-4.926z" fill="rgb(35, 41, 56)" data-original="#000000"></path>
            </g>
        </g>
    </g>
</svg>