<?xml version="1.0" encoding="utf-8"?>
<!-- Generator: Adobe Illustrator 25.3.1, SVG Export Plug-In . SVG Version: 6.00 Build 0)  -->
<svg version="1.1" id="Camada_1" xmlns="http://www.w3.org/2000/svg" xmlns:xlink="http://www.w3.org/1999/xlink" x="0px" y="0px"
	 viewBox="0 0 624 184" style="enable-background:new 0 0 624 184;" xml:space="preserve">
<style type="text/css">
	.st0{display:none;}
	.st1{display:inline;}
	path{fill: rgb(137, 118, 245);}
</style>
<g class="st0">
	<path class="st1" d="M96,65.3H78.2l-1.8,12c1.1-0.1,2.1-0.3,3.8-0.3c3.6,0,7.2,0.8,10.1,2.5c3.7,2.1,6.7,6.1,6.7,12
		c0,9.1-7.3,16-17.4,16c-5.1,0-9.4-1.4-11.7-2.9l1.6-4.8c1.9,1.2,5.8,2.6,10,2.6c6,0,11.1-3.9,11.1-10.2c-0.1-6-4.1-10.4-13.5-10.4
		c-2.7,0-4.8,0.3-6.5,0.5l3-22.5H96V65.3z"/>
	<path class="st1" d="M126.1,73.1c0,9.9-5.2,14.8-11.2,14.8c-5.8,0-10.9-4.7-10.9-14.1c0-9.4,5.1-14.6,11.3-14.6
		C121.8,59.1,126.1,64.2,126.1,73.1z M109,73.5c-0.1,6,2.1,10.5,6,10.5c4.2,0,6-4.5,6-10.7c0-5.7-1.7-10.4-6-10.4
		C111.1,63,109,67.6,109,73.5z M114.5,107.5L142,59.1h4l-27.5,48.4H114.5z M156.6,92.5c0,9.9-5.2,14.8-11.2,14.8
		c-5.8,0-10.9-4.7-10.9-14c0-9.4,5.1-14.7,11.3-14.7C152.3,78.5,156.6,83.6,156.6,92.5z M139.4,92.9c-0.1,6,2.2,10.5,6.1,10.5
		c4.2,0,6-4.5,6-10.7c0-5.7-1.7-10.4-6-10.4C141.6,82.3,139.4,87,139.4,92.9z"/>
	<path class="st1" d="M209.4,55.6v42.1c0,3.1,0.1,6.6,0.3,9H204l-0.3-6h-0.1c-1.9,3.9-6.2,6.8-11.9,6.8c-8.4,0-14.9-7.1-14.9-17.7
		c-0.1-11.6,7.1-18.7,15.6-18.7c5.3,0,8.9,2.5,10.5,5.3h0.1V55.6H209.4z M203.1,86.1c0-0.8-0.1-1.9-0.3-2.7c-0.9-4-4.4-7.3-9.1-7.3
		c-6.6,0-10.4,5.8-10.4,13.5c0,7.1,3.5,12.9,10.3,12.9c4.2,0,8.1-2.8,9.3-7.6c0.2-0.9,0.3-1.7,0.3-2.7V86.1z"/>
	<path class="st1" d="M223.5,90.5c0.1,8.6,5.6,12.1,12,12.1c4.5,0,7.3-0.8,9.6-1.8l1.1,4.5c-2.2,1-6,2.2-11.6,2.2
		c-10.7,0-17.1-7.1-17.1-17.6c0-10.5,6.2-18.8,16.3-18.8c11.4,0,14.4,10,14.4,16.4c0,1.3-0.1,2.3-0.2,3H223.5z M242,85.9
		c0.1-4-1.7-10.3-8.8-10.3c-6.4,0-9.2,5.9-9.7,10.3H242z"/>
	<path class="st1" d="M301.4,55.6v42.1c0,3.1,0.1,6.6,0.3,9H296l-0.3-6h-0.1c-1.9,3.9-6.2,6.8-11.9,6.8c-8.4,0-14.9-7.1-14.9-17.7
		c-0.1-11.6,7.1-18.7,15.6-18.7c5.3,0,8.9,2.5,10.5,5.3h0.1V55.6H301.4z M295,86.1c0-0.8-0.1-1.9-0.3-2.7c-0.9-4-4.4-7.3-9.1-7.3
		c-6.6,0-10.4,5.8-10.4,13.5c0,7.1,3.5,12.9,10.3,12.9c4.2,0,8.1-2.8,9.3-7.6c0.2-0.9,0.3-1.7,0.3-2.7V86.1z"/>
	<path class="st1" d="M315.4,90.5c0.1,8.6,5.6,12.1,12,12.1c4.5,0,7.3-0.8,9.6-1.8l1.1,4.5c-2.2,1-6,2.2-11.6,2.2
		c-10.7,0-17.1-7.1-17.1-17.6c0-10.5,6.2-18.8,16.3-18.8c11.4,0,14.4,10,14.4,16.4c0,1.3-0.1,2.3-0.2,3H315.4z M334,85.9
		c0.1-4-1.7-10.3-8.8-10.3c-6.4,0-9.2,5.9-9.7,10.3H334z"/>
	<path class="st1" d="M347.1,100.3c1.9,1.2,5.2,2.5,8.4,2.5c4.6,0,6.8-2.3,6.8-5.2c0-3-1.8-4.7-6.5-6.4c-6.3-2.2-9.2-5.7-9.2-9.9
		c0-5.6,4.5-10.2,12-10.2c3.5,0,6.6,1,8.6,2.2l-1.6,4.6c-1.4-0.9-3.9-2-7.1-2c-3.7,0-5.8,2.2-5.8,4.8c0,2.9,2.1,4.2,6.6,5.9
		c6,2.3,9.1,5.3,9.1,10.5c0,6.1-4.8,10.4-13,10.4c-3.8,0-7.3-0.9-9.8-2.4L347.1,100.3z"/>
	<path class="st1" d="M401.3,105.4c-1.7,0.9-5.3,2-10,2c-10.5,0-17.4-7.1-17.4-17.8c0-10.7,7.3-18.5,18.7-18.5
		c3.7,0,7.1,0.9,8.8,1.8l-1.4,4.9c-1.5-0.9-3.9-1.7-7.3-1.7c-8,0-12.3,5.9-12.3,13.2c0,8.1,5.2,13,12.1,13c3.6,0,6-0.9,7.8-1.7
		L401.3,105.4z"/>
	<path class="st1" d="M439.8,89c0,12.9-8.9,18.5-17.4,18.5c-9.4,0-16.7-6.9-16.7-17.9c0-11.7,7.6-18.5,17.3-18.5
		C433,71.1,439.8,78.4,439.8,89z M412.2,89.4c0,7.6,4.4,13.4,10.6,13.4c6,0,10.6-5.7,10.6-13.5c0-5.9-3-13.4-10.4-13.4
		C415.4,75.8,412.2,82.8,412.2,89.4z"/>
	<path class="st1" d="M447.8,81.3c0-3.6-0.1-6.6-0.3-9.4h5.6l0.4,5.8h0.1c1.7-3.3,5.8-6.6,11.5-6.6c4.8,0,12.3,2.9,12.3,14.8v20.8
		h-6.3V86.6c0-5.6-2.1-10.3-8.1-10.3c-4.2,0-7.4,3-8.5,6.5c-0.3,0.8-0.4,1.9-0.4,3v21h-6.3V81.3z"/>
	<path class="st1" d="M495.1,61.9v10h9.1v4.8h-9.1v18.8c0,4.3,1.2,6.8,4.8,6.8c1.7,0,2.9-0.2,3.7-0.4l0.3,4.8
		c-1.2,0.5-3.2,0.9-5.6,0.9c-3,0-5.3-0.9-6.8-2.7c-1.8-1.9-2.4-5-2.4-9.1v-19h-5.4v-4.8h5.4v-8.4L495.1,61.9z"/>
	<path class="st1" d="M542.4,89c0,12.9-8.9,18.5-17.4,18.5c-9.4,0-16.7-6.9-16.7-17.9c0-11.7,7.6-18.5,17.3-18.5
		C535.6,71.1,542.4,78.4,542.4,89z M514.8,89.4c0,7.6,4.4,13.4,10.6,13.4c6,0,10.6-5.7,10.6-13.5c0-5.9-3-13.4-10.4-13.4
		C518,75.8,514.8,82.8,514.8,89.4z"/>
</g>
<g>
	<g>
		<path d="M394,134.5c-22.7,0.3-45.4,2.5-68,4.1c-32.9,2.4-65.8,4.6-98.7,5.9c-33.7,1.3-67.4,1.9-101.1-0.3
			c-14.3-0.9-28.5-2.3-42.5-4.9c-12-2.2-24.2-5.1-34.9-10.8c-9.9-5.3-18.6-12.6-24.2-21.9c-5-8.2-7.3-16.7-6.1-26.5
			c-0.1,0.9,0.1-0.5,0.1-0.8c0.1-0.6,0.2-1.2,0.3-1.8c0.3-1.3,0.6-2.5,1-3.7c0.3-1,0.7-2.1,1.1-3.1c-0.3,0.8,0.4-0.8,0.5-1
			c0.3-0.6,0.6-1.3,1-1.9c2.6-4.8,5.4-8.1,9.6-11.8c9.9-8.8,23.6-13.8,36.8-16.6c18.2-3.8,37.4-3.5,55.9-4.2
			c22.8-0.8,45.7-1.5,68.5-2.1c29.1-0.8,58.1-1.4,87.2-1.9c31.3-0.5,62.7-0.9,94-0.9c29-0.1,58,0.1,86.9,0.8
			c22.7,0.5,45.5,1.3,68.2,3.3c4.2,0.4,8.4,0.8,12.5,1.3c0.9,0.1,1.8,0.2,2.7,0.3c1.1,0.1-0.8-0.1,0.5,0.1c0.5,0.1,1,0.1,1.5,0.2
			c1.6,0.2,3.2,0.4,4.8,0.8c9.3,1.9,18.6,5.6,27,10c6.5,3.5,12.6,7.7,17.8,13.1c4,4.1,7,8.5,9.5,13.9c0.7,1.5,1.7,4.4,2.3,6.8
			c0.3,1.2,0.6,2.4,0.8,3.6c0.1,0.5,0.2,1.1,0.3,1.6c-0.1-1,0.1,0.8,0.1,1.2c0.2,2.2,0.2,4.5,0.1,6.7c-0.1,0.9-0.1,1.9-0.2,2.8
			c-0.1,1.1,0.1-0.7,0,0c0,0.2-0.1,0.4-0.1,0.7c-0.1,0.5-0.2,1.1-0.3,1.6c-1.1,5.2-2.9,9.4-6.1,13.7c-8.3,11.3-22.2,18.9-34.8,23.2
			c-9.2,3.1-18.7,5.2-28.3,6.9c-24.6,4.2-50.7,5.6-76.2,6.3c-31.1,0.8-62.2,0.2-93.3-1c-32.6-1.3-65.2-3.3-97.7-5.7
			c-29.8-2.3-59.6-4.9-89.3-7.8c-22.7-2.2-45.4-4.7-68.1-7.3c-7.3-0.8-14.6-1.7-21.8-2.5c-2.4-0.3-4.5,2.3-4.5,4.5
			c0,2.7,2.1,4.2,4.5,4.5c18.3,2.2,36.6,4.3,55,6.2c27.4,2.9,54.9,5.6,82.4,8c32.3,2.8,64.6,5.2,96.9,7.1
			c32.8,1.9,65.7,3.2,98.6,3.4c28.9,0.2,57.9-0.4,86.7-3.1c21-2,43.2-4.6,62.9-12.6c15.3-6.3,31.5-16.3,38.8-31.8
			c4-8.5,4.9-17.9,3.6-27.1c-1.7-11.8-7.8-22.5-16.1-30.8c-5.5-5.5-12.1-10-18.9-13.6c-8.9-4.7-18.8-8.7-28.7-10.7
			c-7.8-1.7-16-2.3-23.9-3c-10.4-0.9-20.9-1.5-31.4-2c-26.8-1.3-53.7-1.7-80.5-1.9c-31.3-0.3-62.5-0.1-93.8,0.2
			c-31.1,0.3-62.1,0.9-93.2,1.6c-26.6,0.6-53.1,1.3-79.7,2.1c-17.7,0.6-35.5,1.1-53.2,1.9C72.2,28.4,42.5,32.3,23.1,52
			C15.3,60,10.3,70.1,9.3,81.2c-0.9,10.4,2.1,21,7.5,29.9c13.5,22.2,38.2,31.7,62.6,36.4c30.8,6,62.5,7,93.8,7
			c34.9,0.1,69.8-1.6,104.7-3.7c29.5-1.8,58.9-4.2,88.4-6.1c9.3-0.6,18.5-1.2,27.8-1.3C399.8,143.4,399.8,134.4,394,134.5L394,134.5
			z"/>
	</g>
</g>
<g>
</g>
<g>
</g>
<g>
</g>
<g>
</g>
<g>
</g>
<g>
</g>
<g>
</g>
<g>
</g>
<g>
</g>
<g>
</g>
<g>
</g>
<g>
</g>
<g>
</g>
<g>
</g>
<g>
</g>
</svg>
