<svg id="Camada_1" data-name="Camada 1" xmlns="http://www.w3.org/2000/svg" viewBox="0 0 612.33 169.55"><path d="M390,124c-15.82.21-31.64,1.5-47.42,2.61-22.92,1.63-45.83,3.33-68.77,4.75-26.14,1.62-52.3,2.91-78.49,3.45-25.14.52-50.34.42-75.44-1.32-20.6-1.42-39.49-3.35-59.59-9.43-2.26-.68-4.51-1.43-6.72-2.27-.53-.19-1-.4-1.57-.61a5.7,5.7,0,0,1-.86-.35c-1.17-.51-2.32-1-3.46-1.6A81.92,81.92,0,0,1,35.76,112c-.93-.68.54.45-.35-.27l-1.15-.92q-1.3-1.08-2.55-2.22a63.4,63.4,0,0,1-4.47-4.51c-.66-.74-1.3-1.5-1.93-2.27l-.57-.71s.65.86.25.32-.62-.84-.92-1.27a54.31,54.31,0,0,1-3.18-5c-.45-.81-.88-1.64-1.29-2.48-.19-.38-.37-.77-.55-1.15s-.73-1.78-.24-.51c-.67-1.75-1.31-3.5-1.81-5.31a52.25,52.25,0,0,1-1.12-5.4c.15,1,.08.77,0,0,0-.46-.09-.93-.12-1.4-.07-.94-.11-1.87-.11-2.81s0-1.74.07-2.61q0-.6.09-1.2c.06-.66.22-1.75,0-.4A42.42,42.42,0,0,1,17,66.5q.36-1.27.81-2.52c.13-.39.28-.77.43-1.16.07-.19.15-.38.23-.57.29-.77-.48,1-.12.28a56.41,56.41,0,0,1,2.67-5c.49-.81,1-1.59,1.56-2.36.3-.42.6-.84.91-1.25-.72,1,0,0,.32-.37A51.51,51.51,0,0,1,28.07,49c.77-.72,1.56-1.42,2.36-2.09.45-.38.9-.74,1.35-1.1-.9.71.29-.21.6-.44a67.64,67.64,0,0,1,6-3.88C40.61,40.16,42.91,39,45.24,38c1.49-.67,1-.48,2.75-1.14q2.05-.8,4.14-1.5a118.8,118.8,0,0,1,18.22-4.49c15.61-2.63,32.13-2.53,48.08-3.44,14.18-.81,28.35-1.7,42.52-2.53,27.1-1.58,54.2-2.18,81.35-2.54,23-.31,45.95-.32,68.93-.51,23.44-.21,46.86-.89,70.28-1.86,25.49-1.07,51-2.06,76.5-1,14.33.6,28.64,1.8,42.89,3.48,8.11.95,16.2,2.07,24.27,3.31,9,1.38,18.32,2.46,27.12,5a113.45,113.45,0,0,1,19.58,7.5,91.76,91.76,0,0,1,8.18,4.67c1.18.76,2.35,1.55,3.48,2.38a31,31,0,0,1,2.68,2.08,64.17,64.17,0,0,1,5.63,5.31c.8.85,1.57,1.72,2.31,2.62.34.4.67.81,1,1.22-.74-.95.4.57.59.84A50,50,0,0,1,599.18,63c.48.89.91,1.79,1.34,2.7.25.53.5,1.2.11.23.22.55.45,1.1.65,1.66A48.39,48.39,0,0,1,603,73.1c.2.86.38,1.74.54,2.61.07.4.12.8.19,1.2.17.93-.12-1.28,0,.37a51.75,51.75,0,0,1,0,9.8c-.09,1-.14.89,0-.06,0,.33-.09.66-.15,1-.13.75-.27,1.5-.44,2.24a35.52,35.52,0,0,1-1.1,4c-.19.57-.41,1.14-.63,1.71,0,.12-.25.56,0,0,.36-.83-.24.5-.33.68-.37.73-.74,1.45-1.14,2.16a35,35,0,0,1-5.11,6.94c-7.15,7.77-16.14,13.19-26,17.64-1.09.49.4-.16.14-.06l-1,.39c-.46.17-.93.35-1.4.5-3,1-6.09,1.71-9.14,2.48q-11.06,2.8-22.28,4.84c-31,5.7-62.67,7.45-94.16,8.37-34.42,1-68.86.93-103.27,2.14-37.06,1.31-74.11,4.14-110.7,10.28q-27.65,4.65-54.72,12c-7.44,2-4.28,13.61,3.2,11.58,37.25-10.17,75.47-16,113.93-19.13,36-2.89,72.16-3.45,108.27-4,33.66-.5,67.4-.93,100.93-4.2a452.5,452.5,0,0,0,47.63-7c10.94-2.26,22-4.51,32.13-9.47,11.06-5.43,21.53-12.91,28.94-22.86a44,44,0,0,0,8.38-22.94c1.58-18-7.12-35.41-20.66-46.92-10.63-9-23.41-15-36.66-19.19-8.85-2.78-18-4-27.17-5.48q-13.2-2.05-26.47-3.71A590.82,590.82,0,0,0,421.6,6.58c-26.4.46-52.77,2-79.17,2.7-21.08.53-42.16.58-63.24.69-28.85.16-57.72.31-86.55,1.32-26.77.94-53.49,2.94-80.23,4.43C84.47,17.27,54.58,17,30,32.47,14.87,42,3.67,57.46,3.66,75.84c0,17.23,9.54,33.26,22.69,43.89,15.76,12.74,35.26,18.08,54.91,21.38,23.38,3.93,47.17,5.28,70.85,5.77,26.65.55,53.32-.11,79.95-1.28,25.66-1.13,51.3-2.78,76.93-4.59,20.35-1.43,40.69-3,61.06-4.2,6.64-.38,13.29-.72,19.95-.81,7.72-.1,7.74-12.1,0-12Z" transform="translate(-3.66 -6.48)"/></svg>