<?xml version="1.0" encoding="utf-8"?>
<!-- Generator: Adobe Illustrator 25.3.1, SVG Export Plug-In . SVG Version: 6.00 Build 0)  -->
<svg version="1.1" id="Camada_1" xmlns:svgjs="http://svgjs.com/svgjs"
	 xmlns="http://www.w3.org/2000/svg" xmlns:xlink="http://www.w3.org/1999/xlink" x="0px" y="0px" viewBox="0 0 512 512"
	 style="enable-background:new 0 0 512 512;" xml:space="preserve">
<style type="text/css">
	.st0{fill:#F0F5FA;}
	.st1{fill:#E4ECF2;}
	.st2{fill:#E97D90;}
	.st3{fill:#BC5063;}
	.st4{fill:#FFFFFF;}
	.st5{fill:#FFDA45;}
	.st6{fill:#232938;}
</style>
<g>
	<g>
		<g>
			<g>
				<g>
					<path class="st0" d="M256,166.3c0,0-12.4-107.3-144.3-158.8v158.8H256z"/>
					<path class="st1" d="M256,166.3c0,0,12.4-107.3,144.3-158.8v158.8H256z"/>
				</g>
				<g>
					<path class="st1" d="M257.6,166.3C200,63.5,62.1,31.9,62.1,31.9L34.7,59.7l189.6,126.1L257.6,166.3z"/>
					<path class="st0" d="M254.4,166.3C312,63.5,449.9,31.9,449.9,31.9l27.4,27.8L287.7,185.8L254.4,166.3z"/>
				</g>
				<path class="st2" d="M497.9,387.4L304.6,496.1c-6.7,3.8-14.9-1.1-14.9-8.7l-10-158.9l10-156.3c0-3.6,1.9-6.9,5.1-8.7L488.1,54.7
					c6.7-3.8,14.9,1.1,14.9,8.7v315.2C503,382.3,501.1,385.6,497.9,387.4L497.9,387.4z"/>
				<path class="st3" d="M488.1,54.7L463,68.8v309.8c0,3.6-1.9,6.9-5.1,8.7L289.7,482v5.4c0,7.6,8.2,12.5,14.9,8.7l193.3-108.8
					c3.1-1.8,5.1-5.1,5.1-8.7V63.4C503,55.8,494.8,51,488.1,54.7L488.1,54.7z"/>
				<path class="st2" d="M207.4,496.1L14.1,387.4c-3.1-1.8-5.1-5.1-5.1-8.7V63.4c0-7.6,8.2-12.5,14.9-8.7l193.3,108.8
					c3.1,1.8,5.1,5.1,5.1,8.7v315.2C222.3,495,214.1,499.9,207.4,496.1L207.4,496.1z"/>
				<path class="st3" d="M217.2,163.5L23.9,54.7C17.2,51,9,55.8,9,63.4v5.4l168.2,94.6c3.1,1.8,5.1,5.1,5.1,8.7V482l25.1,14.1
					c6.7,3.8,14.9-1.1,14.9-8.7l10-158.4l-10-156.8C222.3,168.6,220.4,165.3,217.2,163.5L217.2,163.5z"/>
				<path class="st4" d="M466.3,185.8l-140,80v-48.4l140-80V185.8z"/>
				<g>
					<path class="st2" d="M279.7,504.5h-47.3c-5.5,0-10-4.5-10-10V176.3c0-5.5,4.5-10,10-10h47.3c5.5,0,10,4.5,10,10v318.2
						C289.7,500,285.2,504.5,279.7,504.5z"/>
					<path class="st3" d="M279.7,166.3h-34c5.5,0,10,4.5,10,10v318.2c0,5.5-4.5,10-10,10h34c5.5,0,10-4.5,10-10V176.3
						C289.7,170.8,285.2,166.3,279.7,166.3L279.7,166.3z"/>
					<g>
						<path class="st5" d="M222.3,201.2h67.3v33.3h-67.3L222.3,201.2z"/>
						<path class="st5" d="M222.3,436.3h67.3v33.3h-67.3L222.3,436.3z"/>
					</g>
				</g>
			</g>
			<g>
				<path class="st6" d="M256,282.9c-4.1,0-7.5,3.4-7.5,7.5v90c0,4.1,3.4,7.5,7.5,7.5s7.5-3.4,7.5-7.5v-90
					C263.5,286.3,260.1,282.9,256,282.9z"/>
				<path class="st6" d="M503,297.9c4.1,0,7.5-3.4,7.5-7.5v-227c0-13-14.7-21.7-26.1-15.3l-5.1,2.9l-24.1-24.5c-1.8-1.9-4.5-2.6-7-2
					c-1,0.2-17.1,4-40.5,12.9v-30c0-2.5-1.2-4.8-3.3-6.2c-2-1.4-4.7-1.7-7-0.8c-70.1,27.4-106.8,70.5-125.3,101.9
					c-7.5,12.7-12.7,24.6-16.2,34.5c-3.6-9.9-8.7-21.7-16.2-34.4C221.3,71.1,184.6,27.9,114.5,0.5c-2.3-0.9-4.9-0.6-7,0.8
					s-3.3,3.7-3.3,6.2v30c-23.3-8.9-39.4-12.7-40.5-12.9c-2.5-0.6-5.2,0.2-7,2L32.7,51.1l-5.1-2.9C16.2,41.8,1.5,50.3,1.5,63.4
					v315.2c0,6.3,3.4,12.2,8.9,15.3l193.3,108.8c4.2,1.9,9.5,2.9,13.9,1.4c3.1,4.8,8.5,7.9,14.6,7.9h47.3c6.1,0,11.5-3.2,14.6-7.9
					c4.7,1.5,9.4,1,13.9-1.4l193.3-108.8c5.5-3.1,8.9-8.9,8.9-15.3v-40.2c0-9.7-15-9.7-15,0v40.2c0,0.9-0.5,1.7-1.3,2.2L300.9,489.6
					c-2.1,0.7-3.3,0-3.7-2.2V176.3c-0.3-1.5-0.3-5.4,1.3-6.3L491.8,61.3c2.1-0.7,3.3,0,3.7,2.2v227
					C495.5,294.6,498.9,297.9,503,297.9L503,297.9z M392.8,18.7v24.8c-7.1,3-14.6,6.4-22.4,10.3C343,67.5,308.8,88.6,280.2,119
					c1.5-2.9,3.2-5.9,5-9C301.5,82.3,333.3,44.6,392.8,18.7z M282.2,227.1h-52.3v-18.3h52.3V227.1z M229.8,242.1h52.3v186.7h-52.3
					V242.1z M229.8,443.8h52.3v18.3h-52.3V443.8z M282.2,193.7h-52.3v-17.4c0-1.4,1.1-2.5,2.5-2.5h47.3c1.4,0,2.5,1.1,2.5,2.5V193.7
					z M64.4,40.2c10.9,2.9,42.7,12.3,78.2,31c8.3,4.4,15.6-8.8,7-13.3c-10.6-5.6-20.9-10.4-30.4-14.4V18.7
					c59.1,25.7,90.9,63.1,107.2,90.7c1.9,3.2,3.7,6.4,5.3,9.5c-11.8-12.5-25.3-24.3-40.4-35.2c-7.9-5.7-16.6,6.5-8.8,12.2
					c25.9,18.7,46.6,39.8,61.7,63.1c-8.7-0.7-16.2,2.2-23.4-1.9L46.2,58.7L64.4,40.2z M213.6,489.6c-0.8,0-1.7,0-2.5,0L17.8,380.8
					c-0.8-0.4-1.3-1.3-1.3-2.2V63.4c0-2,2.2-3,3.7-2.2L213.6,170c1.6,0.9,1.6,4.8,1.3,6.3v311.1
					C214.8,488.6,214.1,489.3,213.6,489.6L213.6,489.6z M282.2,494.5c0,1.4-1.1,2.5-2.5,2.5h-47.3c-1.4,0-2.5-1.1-2.5-2.5v-17.4
					h52.3V494.5z M291.1,156.9c-7.3,4.1-14.5,1.3-23.4,1.9c29.4-45,74.8-74.4,109-91.4c32.4-16.2,60.7-24.5,70.8-27.2l18.2,18.5
					L291.1,156.9z"/>
				<path class="st6" d="M462.6,131l-140,80c-2.3,1.3-3.8,3.8-3.8,6.5v48.4c0,5.7,6.3,9.3,11.2,6.5l140-80c2.3-1.3,3.8-3.8,3.8-6.5
					v-48.4C473.8,132.2,467.8,128,462.6,131L462.6,131z M458.8,181.5l-125,71.4v-31.1l125-71.4V181.5z"/>
			</g>
		</g>
	</g>
</g>
</svg>
