<?xml version="1.0" encoding="utf-8"?>
<svg version="1.1" xmlns:svgjs="http://svgjs.com/svgjs"
	 xmlns="http://www.w3.org/2000/svg" xmlns:xlink="http://www.w3.org/1999/xlink" x="0px" y="0px" viewBox="0 0 512 512"
	 style="enable-background:new 0 0 512 512;" xml:space="preserve">
<style type="text/css">
	
</style>
	<path class="point-p" d="M492.8,190.2l-161-14.9L267.8,26.8c-4.5-10.4-19.2-10.4-23.7,0l-63.9,148.5l-161,14.9
		c-11.3,1-15.8,15.1-7.3,22.5l121.5,106.7L97.8,477.2c-2.5,11,9.4,19.7,19.2,13.9l139-82.5l139,82.5c9.7,5.8,21.7-2.9,19.2-13.9
		l-35.5-157.7l121.5-106.7C508.6,205.3,504,191.3,492.8,190.2z"/>
	<path class="point-p" d="M267.8,26.8c-4.5-10.4-19.2-10.4-23.7,0l-63.9,148.5l-161,14.9c-11.3,1-15.8,15.1-7.3,22.5l121.5,106.7
		L97.8,477.2c-2.5,11,9.4,19.7,19.2,13.9l31-18.4c4.3-176.8,86.4-301.2,151.4-372.4L267.8,26.8z"/>
</svg>
