<?xml version="1.0" standalone="no"?>
<svg xmlns:xlink="http://www.w3.org/1999/xlink" id="wave" style="transform:rotate(0deg); transition: 0.3s" viewBox="0 0 1440 210" version="1.1" xmlns="http://www.w3.org/2000/svg">
    <defs>
        <linearGradient id="sw-gradient-0" x1="0" x2="0" y1="1" y2="0">
            <stop stop-color="rgba(56, 49, 99, 1)" offset="0%"/>
            <stop stop-color="rgba(56, 49, 99, 1)" offset="100%"/>
        </linearGradient>
    </defs>
    <path style="transform:translate(0, 0px); opacity:1" fill="url(#sw-gradient-0)" d="M0,63L24,80.5C48,98,96,133,144,122.5C192,112,240,56,288,59.5C336,63,384,126,432,147C480,168,528,147,576,133C624,119,672,112,720,119C768,126,816,147,864,136.5C912,126,960,84,1008,56C1056,28,1104,14,1152,28C1200,42,1248,84,1296,94.5C1344,105,1392,84,1440,73.5C1488,63,1536,63,1584,77C1632,91,1680,119,1728,108.5C1776,98,1824,49,1872,56C1920,63,1968,126,2016,143.5C2064,161,2112,133,2160,133C2208,133,2256,161,2304,164.5C2352,168,2400,147,2448,122.5C2496,98,2544,70,2592,70C2640,70,2688,98,2736,98C2784,98,2832,70,2880,73.5C2928,77,2976,112,3024,129.5C3072,147,3120,147,3168,129.5C3216,112,3264,77,3312,63C3360,49,3408,56,3432,59.5L3456,63L3456,210L3432,210C3408,210,3360,210,3312,210C3264,210,3216,210,3168,210C3120,210,3072,210,3024,210C2976,210,2928,210,2880,210C2832,210,2784,210,2736,210C2688,210,2640,210,2592,210C2544,210,2496,210,2448,210C2400,210,2352,210,2304,210C2256,210,2208,210,2160,210C2112,210,2064,210,2016,210C1968,210,1920,210,1872,210C1824,210,1776,210,1728,210C1680,210,1632,210,1584,210C1536,210,1488,210,1440,210C1392,210,1344,210,1296,210C1248,210,1200,210,1152,210C1104,210,1056,210,1008,210C960,210,912,210,864,210C816,210,768,210,720,210C672,210,624,210,576,210C528,210,480,210,432,210C384,210,336,210,288,210C240,210,192,210,144,210C96,210,48,210,24,210L0,210Z"/>
</svg>